<svg id="Grupo_1204610" data-name="Grupo 1204610" xmlns="http://www.w3.org/2000/svg" xmlns:xlink="http://www.w3.org/1999/xlink" width="419.781" height="326.242" viewBox="0 0 419.781 326.242">
  <defs>
    <clipPath id="clip-path">
      <rect id="Rectángulo_456151" data-name="Rectángulo 456151" width="419.781" height="326.242" fill="none"/>
    </clipPath>
  </defs>
  <g id="Grupo_1180059" data-name="Grupo 1180059" transform="translate(0 0)" clip-path="url(#clip-path)">
    <path id="Trazado_994578" data-name="Trazado 994578" d="M27.962,558.177a17.341,17.341,0,0,0-17.341,17.341c0,8.224,11.351,28.362,14.966,33.833.446.676,2.656.346,3.1-.33,3.614-5.472,16.615-25.279,16.615-33.5a17.342,17.342,0,0,0-17.342-17.341m0,24.119a8.4,8.4,0,1,1,8.4-8.4,8.4,8.4,0,0,1-8.4,8.4" transform="translate(-8.945 -470.094)" fill="#d14343"/>
    <path id="Trazado_994579" data-name="Trazado 994579" d="M17.341,557.758A17.341,17.341,0,0,0,0,575.1c0,8.224,12.786,28.163,16.4,33.635a1.128,1.128,0,0,0,1.883,0c3.614-5.472,16.4-25.411,16.4-33.635a17.341,17.341,0,0,0-17.341-17.341m0,24.119a8.4,8.4,0,1,1,8.4-8.4,8.4,8.4,0,0,1-8.4,8.4" transform="translate(0 -469.741)" fill="#e65555"/>
    <path id="Trazado_994580" data-name="Trazado 994580" d="M1639.4,181.267a17.341,17.341,0,0,0-17.341,17.341c0,8.224,11.351,28.361,14.965,33.833.447.676,2.656.346,3.1-.33,3.614-5.472,16.615-25.279,16.615-33.5a17.342,17.342,0,0,0-17.342-17.341m0,24.119a8.4,8.4,0,1,1,8.4-8.4,8.4,8.4,0,0,1-8.4,8.4" transform="translate(-1366.086 -152.663)" fill="#d14343"/>
    <path id="Trazado_994581" data-name="Trazado 994581" d="M1628.775,180.848a17.342,17.342,0,0,0-17.342,17.341c0,8.224,12.786,28.163,16.4,33.635a1.128,1.128,0,0,0,1.883,0c3.614-5.472,16.4-25.411,16.4-33.635a17.341,17.341,0,0,0-17.341-17.341m0,24.119a8.4,8.4,0,1,1,8.4-8.4,8.4,8.4,0,0,1-8.4,8.4" transform="translate(-1357.14 -152.31)" fill="#e65555"/>
    <path id="Trazado_994582" data-name="Trazado 994582" d="M245.208,768.826q3.3-1.58,6.74-3.154" transform="translate(-206.513 -644.844)" fill="none" stroke="#e65555" stroke-linecap="round" stroke-linejoin="round" stroke-width="2"/>
    <path id="Trazado_994583" data-name="Trazado 994583" d="M371.31,541.992a448.236,448.236,0,0,1,53.566-18.619,453.5,453.5,0,0,1,135.8-16.2" transform="translate(-312.715 -426.942)" fill="none" stroke="#e65555" stroke-linecap="round" stroke-linejoin="round" stroke-width="2.72" stroke-dasharray="7 7"/>
    <path id="Trazado_994584" data-name="Trazado 994584" d="M1616.83,510.174q3.8.178,7.43.407" transform="translate(-1361.685 -429.666)" fill="none" stroke="#e65555" stroke-linecap="round" stroke-linejoin="round" stroke-width="2"/>
    <path id="Trazado_994585" data-name="Trazado 994585" d="M787.01,186.119l-6.6,1.537-4.188-8.035a.981.981,0,0,1,.445-1.338l2.145-1.03a.982.982,0,0,1,1.186.265Z" transform="translate(-653.638 -149.2)" fill="#d14343"/>
    <path id="Trazado_994586" data-name="Trazado 994586" d="M817.064,269.218l-6.6,1.537-.206,9.059a.981.981,0,0,0,.991,1l2.379-.024a.982.982,0,0,0,.947-.761Z" transform="translate(-682.395 -226.734)" fill="#d14343"/>
    <path id="Trazado_994587" data-name="Trazado 994587" d="M937.627,258l5.039,21.632A1.671,1.671,0,0,0,944.575,281l4.536-1.056a1.605,1.605,0,0,0,1.157-1.663l-.506-23.112Z" transform="translate(-789.664 -214.906)" fill="#e65555"/>
    <path id="Trazado_994588" data-name="Trazado 994588" d="M891.834,60.8l-5.04-21.632a1.671,1.671,0,0,1,1.105-2.076l4.536-1.056a1.606,1.606,0,0,1,1.773.981l9.761,20.957Z" transform="translate(-746.809 -30.319)" fill="#e65555"/>
    <path id="Trazado_994589" data-name="Trazado 994589" d="M804.986,173.3s16.9-6.517,15.955-10.561-18.981-2.408-18.981-2.408a.239.239,0,0,0-.083,0c-.92.189-17.882,3.7-32.1,8.152-9.594,3-14.234,7.186-13.719,9.394s6.42,3.912,16.284,2.379c14.759-2.294,31.654-6.686,32.566-6.924a.241.241,0,0,0,.075-.034" transform="translate(-636.718 -134.754)" fill="#e65555"/>
    <path id="Trazado_994590" data-name="Trazado 994590" d="M1846.041,1548.19s-23.88-5.442-34.7,13.725-14.537,151.2-13.12,164.969,28.685,19.241,37.822-1.634,35.514-119.127,36.665-133.539-3.115-35.789-26.669-43.521" transform="translate(-1514.211 -1303.276)" fill="#de9681"/>
    <path id="Trazado_994591" data-name="Trazado 994591" d="M1974.177,1652.24l-48.713,19.506s11.2,22.811,12.7,25.672c1.116,2.139,10.717,57.849,15.493,85.841,11.226-37.164,25.618-92.755,26.461-103.317.658-8.241-.458-18.76-5.936-27.7" transform="translate(-1621.615 -1391.508)" fill="#d38475"/>
    <path id="Trazado_994592" data-name="Trazado 994592" d="M1835.147,1498.493s-37.832-.328-43.362,36.61-7,132.731-5.619,159.637,30.341,22.681,43.469-10.922,22.908-102.936,27.382-133.675,2.567-46.758-21.87-51.65" transform="translate(-1503.888 -1262.023)" fill="#4f3e4f"/>
    <path id="Trazado_994593" data-name="Trazado 994593" d="M1945.44,1910.313c7.967-27.345,14.393-65.683,18.731-94.289l-28.28-30.175-2.8,15.682s-11.482-8.121-15.963-15.963c0,0,10.082,27.724,11.482,33.605,1.132,4.754,12.51,67.324,16.83,91.138" transform="translate(-1614.594 -1503.797)" fill="#423342"/>
    <path id="Trazado_994594" data-name="Trazado 994594" d="M1798.23,2573.044s3.306,137.591,4.218,145.616,16.671,14.834,20.373-.17,8.845-41.895,11.939-58.1,6.4-65.163,3.007-83.863-36.285-27.207-39.536-3.48" transform="translate(-1514.459 -2154.808)" fill="#de9681"/>
    <path id="Trazado_994595" data-name="Trazado 994595" d="M1591.128,3471.683a10.68,10.68,0,0,1-7.4,11c-8.3,2.889-32.917,4.514-35.7,12.313s11.012,9.311,18.624,9.849,16.528-1.891,26.3-.933,21.495,1.584,23.612-4.359-5.418-18.012-3.851-31.536-20.8-12.8-21.578,3.661" transform="translate(-1303.43 -2912.771)" fill="#de9681"/>
    <path id="Trazado_994596" data-name="Trazado 994596" d="M1534.6,3596.927a14.264,14.264,0,0,1,3.609-6.472c1.369-1.369,24.022-8.339,28.5-9.583a53.118,53.118,0,0,0,11.326-4.854c1-.747,2.365-.249,3.236.747s2.738,3.983,2.738,3.983,13.567-1.12,18.172-3.485c.871.872,3.983,10.953,4.73,13.691s1.494,5.974.871,8.464c0,0-21.283,2.241-36.095,2.241s-33.73,3.174-37.09-4.73" transform="translate(-1292.43 -3011.399)" fill="#966363"/>
    <path id="Trazado_994597" data-name="Trazado 994597" d="M1570.33,3673.051a.334.334,0,0,1-.049,0c-5.074-.634-6.481-2.247-6.538-2.315a.394.394,0,0,1,.6-.51c.027.029,1.354,1.458,6.035,2.043a.394.394,0,0,1-.048.785" transform="translate(-1316.896 -3090.924)" fill="#875050"/>
    <path id="Trazado_994598" data-name="Trazado 994598" d="M1625.17,3618.085a.394.394,0,0,1-.069-.782c.248-.044,24.853-4.488,34.62-11.814a.394.394,0,1,1,.473.631c-9.918,7.439-33.938,11.778-34.955,11.959a.4.4,0,0,1-.07.006" transform="translate(-1368.377 -3036.456)" fill="#875050"/>
    <path id="Trazado_994599" data-name="Trazado 994599" d="M1534.6,3710.441v2.116s.187,3.049,7.157,4.418,41.385-.311,49.6-.311a127.276,127.276,0,0,0,16.117-.93.378.378,0,0,0,.312-.374v-2.43s-60.811,1.861-64.41,1.493c-6.1-.622-8.775-3.982-8.775-3.982" transform="translate(-1292.43 -3124.912)" fill="#ad7474"/>
    <path id="Trazado_994600" data-name="Trazado 994600" d="M1800.428,2532.49s-17.083,0-17.923,18.2,1.4,143.383,1.4,143.383-2.24,3.361-2.24,5.321a15.828,15.828,0,0,1,7.561,5.321c2.8,3.921,19,3.174,25.718,2.054,0,0,.84-11.529,2.007-18.81,1.13-7.05,7.281-56.056,8.682-81.259s3.734-61.05,3.734-61.05-4.294-14-28.938-13.162" transform="translate(-1500.508 -2132.818)" fill="#4f3e4f"/>
    <path id="Trazado_994601" data-name="Trazado 994601" d="M1853.78,1132.872s.913,18.852,1.213,30.141-2.605,38.685,27.072,55.963c26.759,15.578,53.431,1.643,58.73-5.626,8.114-11.13,9.31-27.274,6.2-43.808s-10.382-32.966-7.981-60.16-88.449-26.372-85.233,23.49" transform="translate(-1561.173 -919.256)" fill="#de9681"/>
    <path id="Trazado_994602" data-name="Trazado 994602" d="M1932.978,1492.193s-80.4,1.863-92.139-.029a234.1,234.1,0,0,0-.5,41.944c1.581,18.545,30.7,28.465,51.341,30.756s40.445-2.538,46.292-30.684c4.185-19.294-5-41.988-5-41.988" transform="translate(-1549.32 -1256.693)" fill="#4f3e4f"/>
    <path id="Trazado_994603" data-name="Trazado 994603" d="M1960.685,1812.3l-24.792-26.453-2.8,15.682s-11.482-8.121-15.962-15.963c0,0,2.961,8.143,5.9,16.539,10.241,5.431,23.226,8.673,33.931,9.861q1.87.207,3.728.333" transform="translate(-1614.595 -1503.797)" fill="#423342"/>
    <path id="Trazado_994604" data-name="Trazado 994604" d="M1956.838,1515.432s.412,29.4-1.356,44.87c0,0-6.032-4.116-6.6-6.854-2.609-12.563-.663-38.016-.663-38.016Z" transform="translate(-1640.19 -1276.289)" fill="#423342"/>
    <path id="Trazado_994605" data-name="Trazado 994605" d="M1938.458,1496.415c-.857-2.656-1.49-4.221-1.49-4.221s-80.4,1.863-92.139-.029c0,0-.217,1.843-.468,5.018,7.991.9,49.1,4.957,94.1-.768" transform="translate(-1553.31 -1256.693)" fill="#142347"/>
    <rect id="Rectángulo_456147" data-name="Rectángulo 456147" width="5.601" height="8.961" transform="translate(326.244 235.098)" fill="#4f3e4f"/>
    <rect id="Rectángulo_456148" data-name="Rectángulo 456148" width="5.601" height="8.961" transform="translate(295.377 235.098)" fill="#4f3e4f"/>
    <rect id="Rectángulo_456149" data-name="Rectángulo 456149" width="5.601" height="8.961" transform="translate(348.337 235.098)" fill="#4f3e4f"/>
    <rect id="Rectángulo_456150" data-name="Rectángulo 456150" width="5.601" height="8.961" transform="translate(370.43 235.098)" fill="#4f3e4f"/>
    <path id="Trazado_994606" data-name="Trazado 994606" d="M2085.343,1552.7s-28.309-.3-26.064,34.494,23.2,145.549,29.184,157.522,33.675,9.728,36.667-16.463,3.466-106.375,0-138.773c-3.686-34.463-18.46-39.024-39.788-36.78" transform="translate(-1734.206 -1307.27)" fill="#de9681"/>
    <path id="Trazado_994607" data-name="Trazado 994607" d="M2063.631,1542.436s32.983-8.588,37.359,31.315c4.539,41.386,3.09,130.156,3.688,144.766s-7.075,28.915-25.839,29.53-23.378-19.941-29.222-43.961-18.316-95.8-21.521-122.257,9.433-36.06,35.535-39.393" transform="translate(-1707.639 -1298.376)" fill="#4f3e4f"/>
    <path id="Trazado_994608" data-name="Trazado 994608" d="M2226.13,2594.458s28.63,133.076,32.023,141.09,16.395,10.457,18.172-4.446.724-64.02.924-80.856c.42-35.187-5.5-56.535-11.388-67.286-7.184-13.111-43.514-22.735-39.731,11.5" transform="translate(-1874.602 -2165.237)" fill="#de9681"/>
    <path id="Trazado_994609" data-name="Trazado 994609" d="M2178.5,3510.131s1.272,10.741-8.02,12.955-32.779,8.3-35.983,13.028,5.281,8.845,13.446,9.953,26.239-1.1,38.607-1.3,15.987-2.42,17.093-5.688c1.936-5.72-5.4-16.642-4.843-25.984.909-15.315-20.15-19.632-20.3-2.961" transform="translate(-1797.077 -2947.228)" fill="#de9681"/>
    <path id="Trazado_994610" data-name="Trazado 994610" d="M2122.59,3643.067a14.261,14.261,0,0,1,3.61-6.472c1.369-1.369,24.021-8.339,28.5-9.584a53.117,53.117,0,0,0,11.326-4.854c1-.747,2.365-.249,3.236.747s2.738,3.983,2.738,3.983,13.567-1.12,18.172-3.485c.871.871,3.983,10.953,4.73,13.691s1.493,5.974.871,8.464c0,0-21.283,2.24-36.095,2.24s-29.872,2.738-37.09-4.729" transform="translate(-1787.633 -3050.258)" fill="#966363"/>
    <path id="Trazado_994611" data-name="Trazado 994611" d="M2160,3719.253a.335.335,0,0,1-.049,0,24.715,24.715,0,0,1-8.1-2.285.394.394,0,0,1,.375-.693,24.441,24.441,0,0,0,7.827,2.2.394.394,0,0,1-.048.786" transform="translate(-1812.099 -3129.783)" fill="#875050"/>
    <path id="Trazado_994612" data-name="Trazado 994612" d="M2225.384,3663.665a.394.394,0,0,1-.065-.783c.228-.038,22.922-3.928,32.688-11.253a.394.394,0,0,1,.473.631c-9.919,7.439-32.8,11.361-33.03,11.4a.434.434,0,0,1-.066.005" transform="translate(-1873.873 -3075.315)" fill="#875050"/>
    <path id="Trazado_994613" data-name="Trazado 994613" d="M2122.59,3756.581v2.116s1.494,2.987,8.463,4.356,40.078-.249,48.292-.249a132.085,132.085,0,0,0,15.882-.892.646.646,0,0,0,.548-.64v-2.2s-60,1.736-63.6,1.369a17.553,17.553,0,0,1-9.584-3.858" transform="translate(-1787.633 -3163.771)" fill="#ad7474"/>
    <path id="Trazado_994614" data-name="Trazado 994614" d="M2192.2,2552.2l31.645,144.224a4.738,4.738,0,0,0-1.96,4.2s-2.52,3.921-2.52,7.281a22.516,22.516,0,0,0,7.281,4.761c5.041,2.24,14.563,1.96,19.323,1.12s7.281-1.12,7.281-1.12.28-70.011-1.4-94.936-6.721-55.729-8.681-65.531-50.128-37.246-50.968,0" transform="translate(-1846.254 -2133.485)" fill="#4f3e4f"/>
    <path id="Trazado_994615" data-name="Trazado 994615" d="M1651.512,678.137s-17.6-12.237-31.372,10.691-28.966,68.439-33.267,82.581,12.066,21.185,22.3,10.392,35.84-59.3,41.656-71.345,9.368-25.508.682-32.32" transform="translate(-1335.862 -568.377)" fill="#de9681"/>
    <path id="Trazado_994616" data-name="Trazado 994616" d="M1617.088,670.847a46.635,46.635,0,0,0-10.725,13.361c-8.04,14.612-24.018,53.723-24.018,53.723s-4.22-1.111-3.888,4.924c0,0-13.192,23.789.99,35.7,6.612,3.653,11.947,4.274,22.665-6.794s34.479-56.067,37.77-63.674c4.172-9.642,9.91-28.851,2.291-36.136-9.431-9.018-20.893-4.407-25.084-1.1" transform="translate(-1324.667 -561.481)" fill="#e6eef2"/>
    <path id="Trazado_994617" data-name="Trazado 994617" d="M1599.189,1081.419c-.014.025-.761,1.391-1.7,3.645l19.731,10.1c-.944-8.9-7.584-24.5-10.913-26.473-1.981,4.737-3.234,7.806-3.234,7.806-2.918-.73-4.218,2.407-3.888,4.923" transform="translate(-1345.399 -900.045)" fill="#d0e1e8"/>
    <path id="Trazado_994618" data-name="Trazado 994618" d="M1802.083,677.07a49.257,49.257,0,0,1-5.366,1.13l-3.35-10.747a14.979,14.979,0,0,0-12.869-.067,16.246,16.246,0,0,0-5.412,2.482c-.878.6-20.521,40.313-15.06,100.09,11.162-12.8,33.483-55.112,36.666-62.468,3.328-7.691,7.644-21.462,5.392-30.42" transform="translate(-1481.477 -560.887)" fill="#d0e1e8"/>
    <path id="Trazado_994619" data-name="Trazado 994619" d="M1293.723,954.337a14.5,14.5,0,0,1-15.453-3.969c-10.622-11.56-45.609-50.025-52.862-62.927-8.576-15.255,2.529-17.554,12.945-8.124s27.442,23.693,35.379,30.269c12.917,10.7,25.5,18.652,29.578,26.8,2.855,5.7-1.421,15.063-9.587,17.954" transform="translate(-1029.454 -735.833)" fill="#de9681"/>
    <path id="Trazado_994620" data-name="Trazado 994620" d="M1033.453,783.427c5.2,6.228,15.326-5.51,11.867-11.3-.055-.092-10.387-12.96-11.773-17.8-1.459-5.093-.738-7.56-5.972-12.087-4.453-3.851-7.425-6.464-9.668-6.109-2.375.377-.328,3.554,2.081,5.691,2.609,2.315,6.543,9.142,2.813,8.948-2.97-.155-12.5-2.155-15.373-3.448-4.691-2.108-16.411-13.507-19.187-7.511,0,0-3.041-.511-2.84,3.008,0,0-3.68,1.174-.344,5.523a3.075,3.075,0,0,0-.013,4.444,125.722,125.722,0,0,0,11.991,10.755c4.206,3.264,21.234,5.42,27.255,9.07,1.92,1.164,7.974,9.387,9.163,10.81" transform="translate(-828.432 -619.944)" fill="#de9681"/>
    <path id="Trazado_994621" data-name="Trazado 994621" d="M1232.3,821.941c-.28,3.617-1.5,6.551-.308,10.186-2.961-2.874-.347-7.13.308-10.186" transform="translate(-1036.412 -692.235)" fill="#d38475"/>
    <path id="Trazado_994622" data-name="Trazado 994622" d="M1111.609,881.444c7.1-2.265,16.65-3.77,22.827,1.34-6.793-4-15.395-2.412-22.827-1.34" transform="translate(-936.191 -740.583)" fill="#c46f5e"/>
    <path id="Trazado_994623" data-name="Trazado 994623" d="M992.519,813.5c1.759-.279,3.115,1.157,4.385,2.128,3.956,2.992,7.681,6.429,11.824,9.078-4.929-1.193-8.224-5.734-12.1-8.753-1.119-1.14-2.645-2.415-4.109-2.454" transform="translate(-835.894 -685.094)" fill="#d38475"/>
    <path id="Trazado_994624" data-name="Trazado 994624" d="M994.7,778.689c3.714.343,6.4,3.289,9.286,5.344,2.922,2.014,5.518,4.989,8.452,6.63a9.668,9.668,0,0,1-4.777-2.591c-4.211-3.121-7.954-8.02-12.962-9.383" transform="translate(-837.731 -655.808)" fill="#d38475"/>
    <path id="Trazado_994625" data-name="Trazado 994625" d="M1012.7,759.626c6.746,1.008,11.161,7.241,16.744,10.5-6.435-1.668-10.25-9.214-16.744-10.5" transform="translate(-852.889 -639.753)" fill="#d38475"/>
    <path id="Trazado_994626" data-name="Trazado 994626" d="M1096.768,814.51c-1.287,1.115-1.7,2.841-2.107,4.429-1.29,1.208-1.551,3.179-1.876,4.847a2.612,2.612,0,0,0-.682,2.166,2.881,2.881,0,0,1,1.124-1.941c.537-1.477.884-3.427,2.042-4.514.711-1.407.684-3.4,1.867-4.623a7.489,7.489,0,0,1,1.246-2.319,4.461,4.461,0,0,0-1.614,1.956" transform="translate(-919.763 -684.33)" fill="#c46f5e"/>
    <path id="Trazado_994627" data-name="Trazado 994627" d="M1352.084,973.017c-.7-3.759-4.147-9.462-8.389-15.118-10.652-14.33-35.966-33.258-47.1-40.152a7.224,7.224,0,0,0-5.8-1.132l-11.558,15.071c-2.108,2.812,3.266,10.195,10.445,18.713,12.5,14.831,29.64,37.843,43.285,41.424,4.7.679,9.292-.7,10.958-1.919,2.773-2.03,10.3-5.3,8.156-16.888" transform="translate(-1076.979 -771.809)" fill="#e6eef2"/>
    <path id="Trazado_994628" data-name="Trazado 994628" d="M1265.83,900.225s-8.116,10.056-11.4,12.633c-.694.9,1.385,5.255,3.749,6.247.976-.3,8.535-7.681,12-16.248.345-1.08-3.58-3.345-4.349-2.632" transform="translate(-1056.36 -758.05)" fill="#d3e4eb"/>
    <path id="Trazado_994629" data-name="Trazado 994629" d="M1886.848,595.125c-15.864-2.662-28.523-.487-43.46,3.888-9.99,2.926-17.63,4.164-22.469,10.928-8.493,11.873-7.685,42.78-5.515,56.354s3.816,41.96,5,49.251,33.539,18.739,53.343,15.758c15.185-2.286,29.079-9.726,31.054-23.631,2.331-16.4,6.3-39.911,10.9-54.2s11.828-44.03-10.968-53.985c-4.274-1.867-13.71-3.664-17.887-4.365" transform="translate(-1527.704 -500.233)" fill="#de9681"/>
    <path id="Trazado_994630" data-name="Trazado 994630" d="M2033.268,388.036s.6,14.811-2.642,21.619,8.025,10.963,15.33,10.855,18.5-4.265,19.759-13.075-4.107-5.449-3.235-29.38c.682-18.719-31.366-8.444-29.211,9.981" transform="translate(-1709.699 -310.037)" fill="#de9681"/>
    <path id="Trazado_994631" data-name="Trazado 994631" d="M2078.467,378.055c.682-18.719-31.366-8.444-29.211,9.981a95.6,95.6,0,0,1-.219,9.976c7.2,6.418,10.641,6.5,10.641,6.5s12.12.961,19.947-8.177c-.84-3.36-1.511-8.575-1.158-18.277" transform="translate(-1725.687 -310.036)" fill="#d38475"/>
    <path id="Trazado_994632" data-name="Trazado 994632" d="M1816.067,724.728a18.759,18.759,0,0,1-1.245-6.1c-.124-3.485-1.742-43.314-2.863-52.275s-5.2-49.808,5.01-67.731c1.715-1.96,7.553-7.976,29.244-12.3.316-.063.97,1.742,1.842,2.738s27.543-5.393,32.024-8.132c0,0,20.729,2.921,27.609,6.253a106.038,106.038,0,0,0,8.823,10.964c1.68,3.267,2.614,16.8,1.12,30.711s-8.028,40.513-9.428,51.155,4.574,32.112-.093,44.714c0,0-55.188,4.771-92.042,0" transform="translate(-1524.548 -489.257)" fill="#e6eef2"/>
    <path id="Trazado_994633" data-name="Trazado 994633" d="M2035.68,581.961c-2.408-.724-3.895-1.031-3.895-1.031-4.481,2.738-31.152,9.127-32.024,8.132a5.847,5.847,0,0,1-.983-2.941c-1.63.314-2.954.6-4.459.932-.328.52-3.68,5.876-3.976,8.172,0,0,6.7-4.361,8.566-4.517s3.971,9.656,3.971,9.656,20.627-5.5,32.8-18.4" transform="translate(-1676.255 -489.257)" fill="#d0e1e8"/>
    <path id="Trazado_994634" data-name="Trazado 994634" d="M1994.554,626.351l-.057-.011-.012,0-.038-.01-.014,0-.029-.011-.012-.005-.023-.013-.009-.005a.154.154,0,0,1-.024-.021,7.483,7.483,0,0,1-.791-1.16,37.68,37.68,0,0,0-4.826,12.58,241.931,241.931,0,0,0-4.761,40.887c-.28,15.4.56,41.446.28,52.648-.239,9.566-.658,21.225.215,32.48q2.518.1,5.054.175c-.892-11.318-.468-23.04-.228-32.656.28-11.2-.56-37.246-.28-52.648a241.934,241.934,0,0,1,4.76-40.887,38.434,38.434,0,0,1,4.3-11.7,15.531,15.531,0,0,1-3.5.364" transform="translate(-1670.83 -526.462)" fill="#d0e1e8"/>
    <path id="Trazado_994635" data-name="Trazado 994635" d="M2113.506,776.609c4.667-12.6-1.307-34.072.093-44.714s7.935-37.246,9.428-51.155.56-27.444-1.12-30.712a26.356,26.356,0,0,0-13.725-7.5s-28.281-.892-6.306,79.424c-7.56,2.221-47.783,15.876-47.783,15.876l2.717,40.2c29.157.192,56.7-1.421,56.7-1.421" transform="translate(-1729.945 -541.138)" fill="#d0e1e8"/>
    <path id="Trazado_994636" data-name="Trazado 994636" d="M1965.712,662.036s-5.6,15.963-8.4,41.167-1.96,49.848-2.52,56.569l3.08,22.124s8.4-18.483,10.082-23.524c0,0,0-21.563-.56-38.366s0-45.647,2.24-56.009Z" transform="translate(-1646.313 -557.564)" fill="#4f3e4f"/>
    <path id="Trazado_994637" data-name="Trazado 994637" d="M1967.952,1255.159s0-1.205-.008-3.25c-4.742,1.627-9.216,3.169-13.146,4.531,0,.038-.006.083-.009.12l3.08,22.123s8.4-18.483,10.082-23.524" transform="translate(-1646.313 -1054.351)" fill="#402f40"/>
    <path id="Trazado_994638" data-name="Trazado 994638" d="M2015.233,632.459s-2.614,4.481-.125,8.961c2.285,4.113,11.077-6.6,11.077-6.6l-6.472-2.365Z" transform="translate(-1696.207 -532.654)" fill="#4f3e4f"/>
    <path id="Trazado_994639" data-name="Trazado 994639" d="M1984.533,32.035s33.408-.032,28.252,43.71c-5.252,44.557-28.252,41.846-28.252,41.846s-25.2-.169-28.76-42.694,21.814-42.863,28.76-42.863" transform="translate(-1646.854 -26.98)" fill="#de9681"/>
    <path id="Trazado_994640" data-name="Trazado 994640" d="M2193.229,317.544c-.042,3.917-4.625,3.939-4.705.023.042-3.917,4.625-3.939,4.705-.023" transform="translate(-1843.162 -264.97)" fill="#121d3f"/>
    <path id="Trazado_994641" data-name="Trazado 994641" d="M2066.368,317.544c-.042,3.917-4.625,3.939-4.705.023.042-3.917,4.625-3.939,4.705-.023" transform="translate(-1736.321 -264.97)" fill="#121d3f"/>
    <path id="Trazado_994642" data-name="Trazado 994642" d="M2113.789,345.613c-1.48-.032-3.546-.3-4.279-1.472a2.039,2.039,0,0,1,.1-2.211c2.306-4.028,3.6-10.5,3.617-10.565a.827.827,0,1,1,1.622.321c-.054.276-1.362,6.8-3.8,11.066-.051.089-.212.39-.135.514.33.529,2.418.777,4.087.67a.827.827,0,0,1,.108,1.65c-.289.019-.762.04-1.318.028" transform="translate(-1776.387 -278.513)" fill="#c46f5e"/>
    <path id="Trazado_994643" data-name="Trazado 994643" d="M2161.3,277.009a1.524,1.524,0,0,0,.84,2.116c1.54.681,8.755-.223,12.149-.354s2.866-2.052-1.151-2.39c-3.49-.294-11.739-.526-11.838.628" transform="translate(-1820.102 -232.565)" fill="#212851"/>
    <path id="Trazado_994644" data-name="Trazado 994644" d="M2037.631,277.009a1.525,1.525,0,0,1-.84,2.116c-1.54.681-8.755-.223-12.149-.354s-2.866-2.052,1.151-2.39c3.49-.294,11.738-.526,11.838.628" transform="translate(-1703.256 -232.565)" fill="#212851"/>
    <path id="Trazado_994645" data-name="Trazado 994645" d="M2167.308,378.426s.029-3.227,6.054-3.543,8.88,1.221,8.713,3.543-14.565,4.591-14.767,0" transform="translate(-1825.294 -315.69)" fill="#d38475"/>
    <path id="Trazado_994646" data-name="Trazado 994646" d="M2019.418,384.233s-.029-3.227-6.054-3.543-8.879,1.221-8.713,3.543,14.564,4.591,14.767,0" transform="translate(-1688.3 -320.581)" fill="#d38475"/>
    <path id="Trazado_994647" data-name="Trazado 994647" d="M2121.3,493.063a.592.592,0,0,1-.214-.04,6.678,6.678,0,0,0-3.842.011.595.595,0,1,1-.365-1.132,7.843,7.843,0,0,1,4.635.011.6.6,0,0,1-.214,1.15" transform="translate(-1782.478 -413.975)" fill="#d38475"/>
    <path id="Trazado_994648" data-name="Trazado 994648" d="M2081.7,463.117a39.221,39.221,0,0,1-10.191-1.4.669.669,0,0,1,.384-1.282,38.616,38.616,0,0,0,9.808,1.344,39.068,39.068,0,0,0,9.844-1.345.669.669,0,0,1,.381,1.283,39.681,39.681,0,0,1-10.225,1.4" transform="translate(-1744.213 -387.752)" fill="#c46f5e"/>
    <path id="Trazado_994649" data-name="Trazado 994649" d="M2303.689,292.32s2.73-2.746,3.332.881-2.725,14.424-7.256,14.354L2301.5,293.2Z" transform="translate(-1936.849 -245.352)" fill="#de9681"/>
    <path id="Trazado_994650" data-name="Trazado 994650" d="M2317.861,317.1a.457.457,0,0,0-.509-.4,3.109,3.109,0,0,0-1.3.446,6.988,6.988,0,0,1,1.058-2.295.457.457,0,1,0-.729-.553c-1.928,2.543-1.836,7.422-1.832,7.628a.458.458,0,0,0,.915-.021,19.919,19.919,0,0,1,.192-2.828,2.119,2.119,0,0,1,1.8-1.469.457.457,0,0,0,.4-.509" transform="translate(-1949.3 -264.551)" fill="#c46f5e"/>
    <path id="Trazado_994651" data-name="Trazado 994651" d="M1936.283,291.923s-3.622-2.609-4.225,1.017,2,14.424,6.633,14.354Z" transform="translate(-1627.096 -245.092)" fill="#de9681"/>
    <path id="Trazado_994652" data-name="Trazado 994652" d="M1944.257,314.3a.457.457,0,1,0-.729.553,6.988,6.988,0,0,1,1.057,2.295,3.1,3.1,0,0,0-1.3-.446.457.457,0,1,0-.11.908,2.119,2.119,0,0,1,1.8,1.468,19.844,19.844,0,0,1,.192,2.828.458.458,0,0,0,.915.021c0-.206.1-5.085-1.831-7.628" transform="translate(-1636.194 -264.551)" fill="#c46f5e"/>
    <path id="Trazado_994653" data-name="Trazado 994653" d="M1934.224,193.147s-.4,8.682,1.06,14.776c0,0,4.289,2.1,4.737,6.641,0,0,1.01.4,1.346,0s0-22.268,0-22.268Z" transform="translate(-1628.95 -161.951)" fill="#1b224a"/>
    <path id="Trazado_994654" data-name="Trazado 994654" d="M1964.082,23.843a9.357,9.357,0,0,1,2.474,5.607c.337,3.589.9,6.056,3.365,8.748s3.028,10.43,3.14,14.916h.929s2.238-6.468,6.075-7.12a66.89,66.89,0,0,0,1.856-9.142c.448-4.15-.337-20.748-10.879-27.365A25.588,25.588,0,0,0,1953.087.067c-11.541-.673-22.868,4.037-29.373,10.43l2.131-.112a19.012,19.012,0,0,0-4.875,6.393c-2.078,4.262-3.648,7.065-6.34,7.29a6.387,6.387,0,0,0,3.025,2.491,9.706,9.706,0,0,1-4.707.873s.729,5.608,6.364,5.944,13.669-4.037,13.669-4.037,8.453,4.935,15.07,1.907,7.129-4.486,9.9-5.608a40.2,40.2,0,0,1,6.13-1.794" transform="translate(-1611.074 -0.003)" fill="#212851"/>
    <path id="Trazado_994655" data-name="Trazado 994655" d="M1942.776,143.017c3.145-.923,6.25-2.172,8.414-4.734-1.277,3.24-5.091,4.9-8.414,4.734" transform="translate(-1636.195 -116.462)" fill="#1b224a"/>
    <path id="Trazado_994656" data-name="Trazado 994656" d="M2039.894,161.359c2.407-1.544,5.2-2.656,7.332-4.6-1.356,2.68-4.521,4.032-7.332,4.6" transform="translate(-1717.987 -132.024)" fill="#1b224a"/>
    <path id="Trazado_994657" data-name="Trazado 994657" d="M2061.256,59.677c8.232-5.008,20.034-7.406,28.173-1.009-8.614-5.366-19.482-2.977-28.173,1.009" transform="translate(-1735.978 -46.155)" fill="#1b224a"/>
    <path id="Trazado_994658" data-name="Trazado 994658" d="M1994.677,49.965c2.735-1.877,6.183-3.382,9.557-2.862-3.316.546-6.346,1.925-9.557,2.862" transform="translate(-1679.906 -39.583)" fill="#1b224a"/>
    <path id="Trazado_994659" data-name="Trazado 994659" d="M2236.979,74.462a58.559,58.559,0,0,0,6.96-14.355,24.686,24.686,0,0,1-6.96,14.355" transform="translate(-1883.971 -50.622)" fill="#1b224a"/>
    <path id="Trazado_994660" data-name="Trazado 994660" d="M2281.084,131.176a15.007,15.007,0,0,1,5.281,12.561,27.356,27.356,0,0,0-5.281-12.561" transform="translate(-1921.116 -110.476)" fill="#1b224a"/>
    <path id="Trazado_994661" data-name="Trazado 994661" d="M1999.876,610.543a43.973,43.973,0,0,0-9.4,4.7,78.127,78.127,0,0,1,3.983-6.752,41.792,41.792,0,0,1,4.146-2.053,22.7,22.7,0,0,0,1.268,4.106" transform="translate(-1676.37 -510.738)" fill="#e6eef2"/>
    <path id="Trazado_994662" data-name="Trazado 994662" d="M2050.028,571.872a39.2,39.2,0,0,1,4.605,8.619s20.74-6.359,31.756-16.083a7.785,7.785,0,0,0-5.3-3.888s-19.485,8.49-31.06,11.352" transform="translate(-1726.522 -472.067)" fill="#e6eef2"/>
    <path id="Trazado_994663" data-name="Trazado 994663" d="M2341.058,665.47c-4.038-12.441-10.628-24.348-21.368-23.287,0,0-19.149,3.857-13.372,29.359s24.255,67.318,30.779,80.213,22.6,7.3,22.531-7.238-14.531-66.606-18.569-79.047" transform="translate(-1941.452 -540.788)" fill="#de9681"/>
    <path id="Trazado_994664" data-name="Trazado 994664" d="M2313.235,619.84s-26.979,6.041-18.172,36.49,26.047,72.853,33.848,80.151,20.887,4.278,22.145-7.549-7.174-43.159-12.71-62.787-12.528-46.556-25.111-46.3" transform="translate(-1931.401 -522.025)" fill="#e6eef2"/>
    <path id="Trazado_994665" data-name="Trazado 994665" d="M2418.088,1169.045l20.754-2.725c-7.225-6.623-20.529-8.124-25.621-8.46,1.642,3.95,3.278,7.712,4.867,11.185" transform="translate(-2032.401 -975.144)" fill="#d3e4eb"/>
    <path id="Trazado_994666" data-name="Trazado 994666" d="M2305.968,688.7a16.418,16.418,0,0,1,1.14-7.771,11.039,11.039,0,0,1,1.964-3.518,8.325,8.325,0,0,1,3.308-2.3l.108.132c-.326.583-.687,1.114-1.042,1.663-.606.912-1.429,2.2-2.082,3.063a15.913,15.913,0,0,0-2.47,5,19.486,19.486,0,0,0-.754,3.74Z" transform="translate(-1942.007 -568.567)" fill="#d0e1e8"/>
    <path id="Trazado_994667" data-name="Trazado 994667" d="M2012.62,975.674l-3.238-8.67a1.965,1.965,0,0,0-2.146-1.254l-22.376,3.516a1.965,1.965,0,0,0-1.536,2.629l2.916,7.807Z" transform="translate(-1670.239 -813.33)" fill="#754e4e"/>
    <path id="Trazado_994668" data-name="Trazado 994668" d="M1983.325,972.49l2.915,7.807,24.767-3.782-3.135-8.916a1.963,1.963,0,0,0-1.193-1.166l-21.82,3.429a1.965,1.965,0,0,0-1.535,2.628" transform="translate(-1670.239 -813.925)" fill="#825656"/>
    <path id="Trazado_994669" data-name="Trazado 994669" d="M1916.127,1065.079l-29.654-79.4a1.464,1.464,0,0,1,1.15-1.96l57.44-8.787,30.7,82.2-58.043,8.879a1.464,1.464,0,0,1-1.593-.935" transform="translate(-1588.699 -821.083)" fill="#966363"/>
    <path id="Trazado_994670" data-name="Trazado 994670" d="M2258.25,972.972l1.746-.349a.925.925,0,0,1,1.047.581l30.121,79.995a.925.925,0,0,1-.474,1.164l-1.74.812Z" transform="translate(-1901.885 -819.123)" fill="#825656"/>
    <path id="Trazado_994671" data-name="Trazado 994671" d="M2106.541,1230.765s-58.078-5.678-74.19-11.434-9.392-14.575,4.342-14.3,25.879-1.7,35.953-1.937c16.4-.387,30.706-2.409,39.011.8,12.613,4.88,14.041,28.054-5.116,26.865" transform="translate(-1703.723 -1012.413)" fill="#de9681"/>
    <path id="Trazado_994672" data-name="Trazado 994672" d="M1988.1,1158.5a60.357,60.357,0,0,1-8.5-5.145c-2.908-2.349-5.48-4.026-9.618-4.362s-8.276-1.789-8.612-.895-.112,3.355,2.8,4.25,5.145.783,6.822,2.349,2.461,5.145,6.823,7.046,10.737-.671,10.289-3.243" transform="translate(-1651.758 -966.684)" fill="#de9681"/>
    <path id="Trazado_994673" data-name="Trazado 994673" d="M2017.274,1187.281a4.852,4.852,0,0,1,.9.657c.921.86,1.574,2.327,2.7,3.79,1.945-.067,3.911-.464,2.779-1.932-1.6-2.078-5.029-2.45-6.371-2.515" transform="translate(-1698.936 -999.922)" fill="#d38475"/>
    <path id="Trazado_994674" data-name="Trazado 994674" d="M1946.05,1167.681s-14.316-2.349-17.447-2.684-18.258-.979-18.258-.979l-2.4-6.235s-2.376,2.069-2.936,3.523a19.783,19.783,0,0,0-1.118,4.7,7.027,7.027,0,0,0,1.272,2.475,4.939,4.939,0,0,0-1.175,2.474,8.364,8.364,0,0,0,.238,3.551,13.088,13.088,0,0,0,1.23,1.566,15.059,15.059,0,0,0-.112,4.138c.336,1.118,2.237,2.349,2.237,2.349a32.357,32.357,0,0,0,.671,4.026c.336,1.006,6.711,1.454,10.625,1.9s13.645-1.118,16.329-2.013,10.289-1.006,13.645-1.789,8.835-10.289,5.48-13.533a14.153,14.153,0,0,0-8.276-3.467" transform="translate(-1603.442 -975.079)" fill="#de9681"/>
    <path id="Trazado_994675" data-name="Trazado 994675" d="M1986.61,1199.433c-2.364-.208-8.374-.506-12.76-.709a18.739,18.739,0,0,1,1.021,3.885c.224,1.9-1.454,2.908-1.566,3.691s1.23,1.677,1.23,3.243-1.23,2.125-.447,3.691,1.23,2.125.223,3.467-.671,1.789.224,3.579a4.312,4.312,0,0,1,.26,2.415c.9.092,1.764.181,2.535.269,3.323.38,10.836-.691,14.673-1.571.059-2.918,1.262-10.418.817-14.031a18.988,18.988,0,0,0-1.214-4.65,4.284,4.284,0,0,0-2.4-2.392,21.075,21.075,0,0,0-2.6-.886" transform="translate(-1661.902 -1009.559)" fill="#d38475"/>
    <path id="Trazado_994676" data-name="Trazado 994676" d="M1911.948,1225.555a20.048,20.048,0,0,0,3.5,1.5c1.2.185,2.93.211,3.725,1.116-2.578.974-5.846-.789-7.223-2.615" transform="translate(-1610.232 -1032.156)" fill="#c46f5e"/>
    <path id="Trazado_994677" data-name="Trazado 994677" d="M1913.809,1273.659c1.046.256,2.121.535,3.166.759,1.4.075,2.76-.152,4.1.527-1.917,1.552-5.748.063-7.268-1.286" transform="translate(-1611.799 -1072.669)" fill="#c46f5e"/>
    <path id="Trazado_994678" data-name="Trazado 994678" d="M1927.275,1314.766c.53.1,1.756.277,2.27.351,1.248.255,2.378-.254,3.645.266-.656,1.2-2.687,1.008-3.846.46a11.424,11.424,0,0,1-2.068-1.076" transform="translate(-1623.14 -1107.289)" fill="#c46f5e"/>
    <path id="Trazado_994679" data-name="Trazado 994679" d="M2233.578,1199.3s3.569,16.568-8.859,19.964c-7.229,2.024-25.126,1.336-48-1.611-12.009-1.547-17.971-4.426-22.414-7.664a24.65,24.65,0,0,0,1.918-17.574c2.82-4.426,15.1-2.854,33.226-3.571,14.516-.575,14.937-2.151,19.807-1.379s20.83,2.087,24.318,11.835" transform="translate(-1814.346 -999.902)" fill="#e6eef2"/>
    <path id="Trazado_994680" data-name="Trazado 994680" d="M2133.882,1211.555h5.034a.493.493,0,0,1,.421.283,25.9,25.9,0,0,1,1.673,9.758c-.143,4.269-.765,9.537-1.654,10.642a.467.467,0,0,1-.245.16c-1.349.406-6.122-.752-6.173-.761a.494.494,0,0,1-.378-.638c2.041-6.787,1.055-16.419.783-18.89a.5.5,0,0,1,.539-.551" transform="translate(-1796.01 -1020.364)" fill="#d3e4eb"/>
  </g>
</svg>
