<svg xmlns="http://www.w3.org/2000/svg" width="96" height="96" viewBox="0 0 96 96">
  <g id="Grupo_1204734" data-name="Grupo 1204734" transform="translate(-835.371 -2110.029)">
    <g id="Grupo_1204693" data-name="Grupo 1204693" transform="translate(835.371 2110.029)">
      <g id="Grupo_154427" data-name="Grupo 154427">
        <path id="Elipse_5729" data-name="Elipse 5729" d="M48,0A48,48,0,1,1,0,48,48,48,0,0,1,48,0Z" fill="#86f071"/>
      </g>
      <g id="Grupo_1204692" data-name="Grupo 1204692" transform="translate(18.143 18.248)">
        <path id="Trazado_1263863" data-name="Trazado 1263863" d="M417.147,252.2h15.3v1.81H372.865c-.02-.188-.059-.4-.061-.607-.007-.75-.01-1.5,0-2.251a8.789,8.789,0,0,1,6.435-8.363,2.115,2.115,0,0,0,.717-.361,5.4,5.4,0,0,1-3.239-3.727c-.349,0-.7.012-1.056,0a2.885,2.885,0,0,1-2.509-4.3,1.735,1.735,0,0,0,.159-.937c-.11-.908-.294-1.807-.433-2.712a4.516,4.516,0,0,1,3.662-5.45,1.8,1.8,0,0,0,.817-.48,4.493,4.493,0,0,1,3.407-1.478c1.806.02,3.612-.025,5.417.02.74.019,1.472.248,2.213.294a13.011,13.011,0,0,0,1.745-.122c0-.924.01-1.725-.009-2.525a.874.874,0,0,0-.187-.444,10.356,10.356,0,0,0-6.672-4.6,3.033,3.033,0,0,1-2.711-2.453,3.622,3.622,0,0,1,0-1.234c.159-1.1.366-2.189.547-3.284.031-.185.022-.376.037-.694l-3.779.919c.151-.891.266-1.7.43-2.5a17.85,17.85,0,0,1,1.073-4.263,10.063,10.063,0,0,1,7.9-5.934,3.91,3.91,0,0,0,1.819-.695,6.653,6.653,0,0,1,4.048-1.311c2.056,0,4.111-.02,6.167,0a11.039,11.039,0,0,1,10.566,8.452c.077.323.152.646.256,1.091h-3.936c-.313,1.339.917,4.714,2.083,5.808a12.559,12.559,0,0,1,6.732-8.345,12.036,12.036,0,0,1,7.534-1.106,12.516,12.516,0,0,1,.833,24.529,5.246,5.246,0,0,1-1.659,3.331,1.028,1.028,0,0,0-.228.671c-.023,1.055-.039,2.113.009,3.166a1.445,1.445,0,0,0,.4.843c1,1.041,2.033,2.048,3.038,3.052l-1.378,1.316-2.045-1.986v7.155h-1.989v-6.981l-.162-.086c-.538.536-1.094,1.057-1.6,1.62a1.037,1.037,0,0,0-.131.626c-.013.972-.038,1.946,0,2.917a9.188,9.188,0,0,1-1.852,6.531A7.433,7.433,0,0,1,417.147,252.2Zm-33.573-46.485c-.132.861-.239,1.6-.359,2.332-.247,1.505-.53,3.006-.743,4.516-.133.94.147,1.281,1.049,1.466a11.839,11.839,0,0,1,6.224,3.308c.09.091.192.171.349.311v-5.81c-.261-.045-.479-.078-.7-.12a3.841,3.841,0,0,1-2.646-5.622,3.787,3.787,0,0,1,2.836-1.962c.313-.053.654,0,.858-.378a3.069,3.069,0,0,1,3.062-1.575c4.193.033,8.387.012,12.58.012h.962a3.755,3.755,0,0,0-.145-.447,8.589,8.589,0,0,0-6.966-5.179,58.223,58.223,0,0,0-7.566-.13,4.914,4.914,0,0,0-3.353,1.488,1.448,1.448,0,0,1-1.1.446,7.585,7.585,0,0,0-4.373,1.393,8.675,8.675,0,0,0-3.717,6.851Zm8.453,4.147v5.962c0,2.416.012,4.831-.01,7.247a.812.812,0,0,0,.553.886c.662.284,1.288.649,1.945.945a.968.968,0,0,0,.689.084c.88-.4,1.734-.857,2.556-1.273v-2.371h-3.72V219.5h.971c1.86,0,3.72.016,5.58-.006a2.666,2.666,0,0,0,2.72-1.962,4.955,4.955,0,0,1-4.154-1.484,5.11,5.11,0,0,1-1.3-4.277h5.772v-1.527l1.5-.8a13.117,13.117,0,0,1-1.51-5.333c-.279-.014-.47-.031-.662-.031q-4.747,0-9.494,0a3.722,3.722,0,0,0-.416.009,1,1,0,0,0-1.01,1.013c-.032.292-.04.586-.061.925-.622,0-1.174-.009-1.726,0a1.972,1.972,0,0,0-2.079,1.929,2,2,0,0,0,2.112,1.9C390.834,209.868,391.383,209.86,392.027,209.86Zm-.31,23.1a5.858,5.858,0,0,0-5.407-7.718c-1.855-.094-3.718-.039-5.577-.011a2.228,2.228,0,0,0-2.089,1.147,1.405,1.405,0,0,1-1.5.837,2.507,2.507,0,0,0-2.441,2.706c.105.985.325,1.958.5,2.992.253,0,.47.007.686,0,.241-.009.482-.031.711-.047.048-.284.077-.5.123-.719a3.885,3.885,0,0,1,3.669-3.077c.305-.012.587-.027.8.3.64,1,1.311,1.978,2.011,3.025l-1.591,1.056-1.56-2.3a1.764,1.764,0,0,0-1.5,1.932q-.037,2.248,0,4.5a2.89,2.89,0,0,0,3.031,3.043c1.193.025,2.387-.011,3.58.009a2.948,2.948,0,0,0,3.018-3.056c-.073-1.885-.018-3.774-.015-5.662,0-.269.024-.539.037-.813h1.986v1.781Zm22.13,12.853a5.432,5.432,0,0,0,1.291-3.465q.025-4.457,0-8.915a6.421,6.421,0,0,0-.2-1.567,8.676,8.676,0,0,0-17.1,1.751c-.1,2.857-.048,5.721-.007,8.581a5.532,5.532,0,0,0,1.325,3.606l3.053-.958a1.273,1.273,0,0,0,.935-1.184.619.619,0,0,0-.076-.11c-.11-.084-.221-.168-.334-.248a6.515,6.515,0,0,1-2.951-5.57c0-.694-.02-1.389.006-2.083a4.613,4.613,0,0,1,2.645-4.124c.266-.142.545-.26.813-.386l-.578-1.872,1.828-.332c.143.362.252.672.386.971a4.846,4.846,0,0,0,3.369,2.854,9.8,9.8,0,0,0,1.983.151,2.965,2.965,0,0,1,3.027,3c.021.638.025,1.278,0,1.916a6.7,6.7,0,0,1-2.974,5.491c-.155.108-.3.236-.433.347a1.358,1.358,0,0,0,1.105,1.228C411.887,245.147,412.8,245.472,413.846,245.81Zm-1.461-25.781c.716-.17,1.028-.588.872-1.276a3.249,3.249,0,0,0-.377-1.054,8.8,8.8,0,0,1-1.437-6.334,8.66,8.66,0,1,1,12.279,9.17c-.364.177-.735.341-1.069.495l.3,1.822a10.452,10.452,0,0,0,7.647-10.192,10.61,10.61,0,0,0-19.878-5.044A10.424,10.424,0,0,0,412.385,220.029Zm-14.659,27.094a8.787,8.787,0,0,1-1.829-6.142c.065-2.221.031-4.445.008-6.667a11.9,11.9,0,0,1,.617-4.011.7.7,0,0,0,.016-.526c-.5-.677-1.038-1.325-1.6-2.027a13.021,13.021,0,0,1-.823,1.017,1.023,1.023,0,0,0-.282,1.061,7.447,7.447,0,0,1-.217,3.7,1.607,1.607,0,0,0,.077,1.1,2.861,2.861,0,0,1-2.687,4.066c-.329.009-.658,0-.992,0a5.471,5.471,0,0,1-3.254,3.768,10.076,10.076,0,0,1,5.4,3.478,9.437,9.437,0,0,1,1.837,6.174h1.9A7.007,7.007,0,0,1,397.726,247.123Zm13.588-9.932c0-.381,0-.631,0-.88,0-1.2-.241-1.444-1.47-1.442a7.13,7.13,0,0,1-4.835-1.672,1,1,0,0,0-.915-.23,2.833,2.833,0,0,0-2.378,2.455,9.185,9.185,0,0,0,.184,3.711,4.825,4.825,0,0,0,8.8.977A5.286,5.286,0,0,0,411.314,237.191Zm-11.5-13.587a9.719,9.719,0,0,1,1.2.467,1.655,1.655,0,0,0,1.563.03,10.327,10.327,0,0,1,7.859-.013c.265.1.533.2.874.33,0-.655-.042-1.184.01-1.7a1.952,1.952,0,0,0-.6-1.617,12.093,12.093,0,0,1-3.136-9.973,6.549,6.549,0,0,0,0-.717c-.563.277-1.045.546-1.553.753a.809.809,0,0,0-.539.9c.025,1.47-.04,2.942.02,4.409a4.793,4.793,0,0,1-4.868,4.9c-.268-.012-.537.022-.839.035Zm19.218-4.287c2.481.732,5.727-.991,7.059-3.719a6.708,6.708,0,0,0-2.175-8.31,6.79,6.79,0,0,0-8.7.7c-2.113,2.057-2.4,5.6-1.486,6.861l1.535-1.108a4.819,4.819,0,1,1,9.491-1.646,4.473,4.473,0,0,1-.823,3.394,4.952,4.952,0,0,1-4.9,2.01Zm-1.905-6.594a1.6,1.6,0,0,0,.771,1.618c.231.194.4.465.632.654a2.513,2.513,0,0,0,.872.55,2.857,2.857,0,0,0,3.417-2.256,2.889,2.889,0,0,0-2.671-3.423A2.858,2.858,0,0,0,417.129,212.723Zm-42.424,39.424h5.961c.157-.575.272-1.146.47-1.688a1.814,1.814,0,0,0-.644-2.171l-2.6,1.52-.786-3.735A7.183,7.183,0,0,0,374.705,252.148Zm11.36-.02h5.876c.351-2.3-.747-5.08-2.34-5.888l-.744,3.562-2.617-1.512a1.889,1.889,0,0,0-.6,2.3C385.824,251.074,385.921,251.594,386.065,252.128Zm34.7-26.913c-.864,0-1.72.007-2.576,0a2.883,2.883,0,0,1-3.024-2.607c-.021-.137-.008-.279-.036-.414a1.007,1.007,0,0,0-.926-.809.956.956,0,0,0-.916.9c-.025.941-.018,1.885.023,2.826a2.541,2.541,0,0,0,1.2,1.819,2.068,2.068,0,0,0,1.149.25c1.025.032,2.051.011,3.077.011A2.005,2.005,0,0,0,420.765,225.215Zm-17.029,23.056h5.536c.037-.576.085-1.1.1-1.617a.783.783,0,0,0-.161-.447c-.44-.588-.9-1.163-1.383-1.783h-2.656c-.476.616-.915,1.173-1.339,1.742a.79.79,0,0,0-.182.432C403.656,247.145,403.7,247.691,403.737,248.271Zm7.691-1.192a11.6,11.6,0,0,1-1.943,5.051h5.589A4.575,4.575,0,0,0,411.428,247.078Zm-9.782.007a4.587,4.587,0,0,0-3.748,5.026h5.763A8.55,8.55,0,0,1,401.646,247.085Zm14.281-17.992a12.517,12.517,0,0,1,1.248,5.285c.621-.617,1.131-1.115,1.628-1.626a.6.6,0,0,0,.179-.357c.014-1.095.008-2.19.008-3.3Zm1.193-9.507c0-1.024.027-1.993-.01-2.959a.934.934,0,0,0-.937-.967.944.944,0,0,0-1.01.977c-.035.992-.009,1.987-.009,2.956l.984.579Zm3.822,3.755c.016-.266.035-.429.035-.592,0-.978-.368-1.361-1.33-1.377-.5-.008-1-.023-1.492.007a.963.963,0,0,0-1.02.97.944.944,0,0,0,1,.984C419.044,223.367,419.953,223.342,420.942,223.342Zm-20.925-9.607a2.869,2.869,0,0,0,3.574,1.807v-1.807Zm-.186,11.826c-.477-.06-.866-.231-1.145-.121-.758.3-1.469.714-2.251,1.109l1.2,1.422Zm8.472,24.686h-3.594a4.31,4.31,0,0,0,1.528,1.556.59.59,0,0,0,.524,0A4.391,4.391,0,0,0,408.3,250.247Zm-26.495-7.031c.422.283.817.582,1.246.82a.709.709,0,0,0,.587.033c.472-.265.908-.594,1.327-.878-.1-.5-.332-.687-.77-.663a15.3,15.3,0,0,1-1.651,0C382.106,242.506,381.873,242.678,381.808,243.216Zm-.349,2.223c-1.109-.983-1.212-1.155-2.549-.391l.324,1.735Zm6.381-.421c-1.309-.659-1.537-.619-2.535.438l2.213,1.319ZM376.6,234.862c-.655.057-1.359-.214-1.741.495a1.111,1.111,0,0,0,0,.916c.387.694,1.076.473,1.74.449Zm13.546.047v1.8c1.362.118,1.875-.148,1.873-.9S391.525,234.819,390.144,234.909Zm-7.86,12.38c.29.39.348.975,1,1.046.794.086.84-.643,1.2-1.034C383.383,246.434,383.383,246.434,382.284,247.289Zm1.768,4.863-.49-1.947-.24-.016a3.629,3.629,0,0,0-.546,1.963Zm9.362-25.623-1.256-.625-.08.105.829,1.138Z" transform="translate(-372.798 -194.506)" fill="#0b353d"/>
        <path id="Trazado_1263864" data-name="Trazado 1263864" d="M677.45,383.676l-1.163-1.243,4.388-4.364,4.292,4.348-1.323,1.281-1.877-2.118-.2.093v11.878h-1.875V381.761l-.183-.091Z" transform="translate(-625.714 -347.48)" fill="#0b353d"/>
        <path id="Trazado_1263865" data-name="Trazado 1263865" d="M696.951,482.89h1.775v7.6h-1.775Z" transform="translate(-642.935 -434.834)" fill="#0b353d"/>
        <path id="Trazado_1263866" data-name="Trazado 1263866" d="M650.342,494.717h1.882V496.5h-1.882Z" transform="translate(-604.093 -444.69)" fill="#0b353d"/>
        <path id="Trazado_1263867" data-name="Trazado 1263867" d="M652.324,519.755H650.46v-1.779h1.864Z" transform="translate(-604.191 -464.074)" fill="#0b353d"/>
        <path id="Trazado_1263868" data-name="Trazado 1263868" d="M511.538,263.894h1.773c.19,1.519.4,1.871,1.089,1.848.645-.021.851-.387,1.018-1.844h1.75a3.018,3.018,0,0,1-1.135,3.241,2.718,2.718,0,0,1-3.065.177A3.029,3.029,0,0,1,511.538,263.894Z" transform="translate(-488.37 -252.331)" fill="#0b353d"/>
        <path id="Trazado_1263869" data-name="Trazado 1263869" d="M437.348,405.672l1.593-1.073,1.919,2.859-1.573,1.086Z" transform="translate(-426.591 -369.589)" fill="#0b353d"/>
      </g>
    </g>
  </g>
</svg>
