<svg xmlns="http://www.w3.org/2000/svg" width="96" height="96" viewBox="0 0 96 96">
  <g id="Grupo_1204735" data-name="Grupo 1204735" transform="translate(-985.711 -2121)">
    <g id="Grupo_1204695" data-name="Grupo 1204695" transform="translate(22.34 0.501)">
      <g id="Grupo_154427" data-name="Grupo 154427" transform="translate(169.332 -799.582)">
        <path id="Elipse_5729" data-name="Elipse 5729" d="M48,0A48,48,0,1,1,0,48,48,48,0,0,1,48,0Z" transform="translate(794.039 2920.081)" fill="#86f071"/>
      </g>
      <g id="Grupo_1204694" data-name="Grupo 1204694" transform="translate(496.754 1854.423)">
        <path id="Trazado_1263870" data-name="Trazado 1263870" d="M538.9,316.277c-.965-2.677-.562-4.674,1.147-6.01a4.463,4.463,0,0,1,5.071-.227c2.014,1.334,2.516,3.158,1.649,6.146a4.165,4.165,0,0,0,2.305,1.578,4.459,4.459,0,0,1,3.234,5.189c-.093.478-.242.946-.4,1.548a5.893,5.893,0,0,1,2.266,5.636h6.539c.069-2.173.53-4.21,2.467-5.573a17.959,17.959,0,0,1-.476-1.924,4.3,4.3,0,0,1,3.082-4.831,4.579,4.579,0,0,0,2.6-1.582,4.636,4.636,0,0,1-.216-4.087,6.18,6.18,0,0,1,1.675-2.054,4.412,4.412,0,0,1,5.074.186c1.786,1.39,2.191,3.208,1.288,5.907a4.741,4.741,0,0,0,2.53,1.69,4.291,4.291,0,0,1,3.038,5.061c-.056.279-.143.551-.21.827-.056.234-.1.47-.167.758a6.068,6.068,0,0,1,2.332,5.584c.3.044.531.086.76.109,1.075.1,1.39.394,1.414,1.436.025,1.106.017,2.214-.018,3.319-.035,1.125-.344,1.44-1.511,1.449-3.032.024-6.065.007-9.1.012-6.269.009-12.539.031-18.809.03q-11.617,0-23.235-.032c-.9,0-1.8.053-2.7.018-1.056-.041-1.424-.464-1.433-1.57-.007-.942.017-1.885.031-2.827.021-1.441.267-1.7,1.691-1.819.118-.01.234-.044.469-.09-.011-2.224.493-4.279,2.368-5.568-.178-.9-.386-1.643-.466-2.4a4.141,4.141,0,0,1,3.1-4.336A6.254,6.254,0,0,0,538.9,316.277Zm44.72,16.26H531.4v1.557h52.217Zm-2.213-2.349c.134-1.431.012-2.652-1.1-3.559a1.2,1.2,0,0,0-1.434-.287,3.831,3.831,0,0,1-2.754.05,1.483,1.483,0,0,0-1.986.578,4,4,0,0,0-.685,3.218Zm-39.844,0a3.591,3.591,0,0,0-1.078-3.568,1.161,1.161,0,0,0-1.332-.3,4.106,4.106,0,0,1-3.116-.042,1.089,1.089,0,0,0-1.134.164,3.365,3.365,0,0,0-1.132,3.747Zm29.461-.018a3.5,3.5,0,0,0-1.194-3.652,1.015,1.015,0,0,0-1.116-.219,4.722,4.722,0,0,1-3.234.038,1.569,1.569,0,0,0-1.115.166,3.067,3.067,0,0,0-1.083,3.668Zm-19.125,0a3.793,3.793,0,0,0-.913-3.441,1.3,1.3,0,0,0-1.627-.4,3.513,3.513,0,0,1-2.867,0,1.215,1.215,0,0,0-1.517.344,3.641,3.641,0,0,0-.982,3.5ZM539.9,318.156c2.158,1.862,2.7,3.871,1.633,6.267l1.258,1.191,1.187-1.135c-.882-2.887-.677-3.78,1.492-6.345-.382-.065-.711-.229-.948-.142a5.226,5.226,0,0,1-3.592-.02C540.716,317.9,540.426,318.053,539.9,318.156Zm29.747-.094-.113.216c2.023,1.714,2.6,3.74,1.388,6.15l1.35,1.2,1.254-1.191a4.919,4.919,0,0,1,1.38-6.273,1.979,1.979,0,0,0-1.071-.093,4.816,4.816,0,0,1-3.235-.031A2.788,2.788,0,0,0,569.648,318.062Zm7.7,6.252a2.212,2.212,0,1,0,.131-4.422,2.344,2.344,0,0,0-2.311,2.246A2.159,2.159,0,0,0,577.347,324.314Zm-12.427-2.2a2.137,2.137,0,0,0,2.26,2.2,2.216,2.216,0,0,0-.161-4.429A2.146,2.146,0,0,0,564.92,322.113Zm-19.9-8.227a2.446,2.446,0,0,0-2.317-2.26,2.251,2.251,0,0,0-2.105,2.286,2.21,2.21,0,0,0,2.143,2.232A2.335,2.335,0,0,0,545.018,313.885Zm5.164,8.227a2.243,2.243,0,0,0-4.485.071,2.243,2.243,0,0,0,4.485-.071Zm-10.368-.052a2.075,2.075,0,0,0-2.177-2.148,2.259,2.259,0,0,0-2.242,2.281,2.211,2.211,0,1,0,4.42-.133Zm34.694-8.2a2.389,2.389,0,0,0-2.322-2.253,2.292,2.292,0,0,0-2.12,2.4,2.217,2.217,0,0,0,2.276,2.1A2.333,2.333,0,0,0,574.508,313.857Z" transform="translate(-37.729 -20.357)" fill="#0b353d"/>
        <path id="Trazado_1263871" data-name="Trazado 1263871" d="M497.258,443.708c.312.551.585.963.788,1.407a2.132,2.132,0,0,1-.888,2.954c-1.363.831-2.734,1.649-4.124,2.435-1.521.861-2.542.63-3.408-.855-2.042-3.5-4.034-7.033-6.045-10.553-1.34-2.346-2.691-4.686-4.006-7.046a3.868,3.868,0,0,1-.515-1.482,1.91,1.91,0,0,1,1.052-1.818c1.471-.889,2.93-1.8,4.437-2.624a2.151,2.151,0,0,1,3.135.92c.247.415.488.834.789,1.351,1.684-.933,3.266-1.859,4.893-2.7,2.106-1.085,4.2-2.223,6.388-3.109a10.864,10.864,0,0,1,7.471-.075q5.038,1.581,10.055,3.226a1.723,1.723,0,0,0,1.516-.074c1.285-.722,2.615-1.362,3.9-2.08,2.663-1.487,4.9-1.05,6.789,1.362a3.453,3.453,0,0,0,.3.273c.772-.389,1.594-.817,2.428-1.22a5.031,5.031,0,0,1,3.54-.611,4.731,4.731,0,0,1,1.254,8.8c-3.152,1.744-6.324,3.451-9.488,5.173-3.6,1.956-7.236,3.835-10.773,5.89a10.71,10.71,0,0,1-9.662.8,34.73,34.73,0,0,0-4.94-1.432A7.038,7.038,0,0,0,497.258,443.708Zm-1.246-2.2c.159.02.2.04.236.028a8.538,8.538,0,0,0,.8-.311,9.968,9.968,0,0,1,7.529-.374c1.254.376,2.516.735,3.745,1.182a8.239,8.239,0,0,0,7.192-.663c3.822-2.138,7.684-4.2,11.532-6.293,1.834-1,3.677-1.976,5.506-2.983,1.147-.631,2.3-1.26,3.4-1.962a2.424,2.424,0,0,0,1.213-2.711c-.453-1.735-2.05-2.4-3.784-1.494-3.081,1.615-6.128,3.295-9.2,4.932a1.635,1.635,0,0,0-.957,1.292,4.272,4.272,0,0,1-1.613,2.677,4.621,4.621,0,0,1-4.607.839c-3.3-1.093-6.618-2.149-9.922-3.238a1.5,1.5,0,0,1-.808-.5,1.478,1.478,0,0,1-.2-1.108,1.569,1.569,0,0,1,.908-.667,1.492,1.492,0,0,1,.822.145c1.871.6,3.738,1.207,5.609,1.8,1.482.472,2.953.989,4.457,1.378a2.39,2.39,0,0,0,3.193-1.986,2.456,2.456,0,0,0-1.789-2.733c-1.7-.592-3.419-1.125-5.135-1.666-2.654-.836-5.3-1.687-7.973-2.478a9.467,9.467,0,0,0-6.725.462c-2.3,1.047-4.5,2.339-6.732,3.535-1.036.554-2.06,1.131-3.145,1.727Zm-4.355,7.129,4.425-2.443-10.4-18.068L481.3,430.64Zm36.027-22.214c-1.069-1.49-2.086-1.817-3.542-1.111-1.025.5-2,1.1-3.015,1.672l1.837,1.952Z" transform="translate(0 -105.214)" fill="#0b353d"/>
        <path id="Trazado_1263872" data-name="Trazado 1263872" d="M629.325,290.063a7.512,7.512,0,0,1-7.526,7.322,7.388,7.388,0,0,1-7.423-7.672,7.507,7.507,0,0,1,7.768-7.349A7.6,7.6,0,0,1,629.325,290.063Zm-2.248-.09a5.256,5.256,0,1,0-5.41,5.191A5.241,5.241,0,0,0,627.076,289.972Z" transform="translate(-102.04)" fill="#0b353d"/>
        <path id="Trazado_1263873" data-name="Trazado 1263873" d="M633.364,303.639c-.776,0-1.554.026-2.329-.007-.869-.037-1.242-.356-1.282-1.009a1.138,1.138,0,0,1,1.24-1.22c1.632-.058,3.268-.069,4.9-.019a1.169,1.169,0,0,1,1.255,1.1c.012.634-.5,1.087-1.334,1.117-.816.029-1.634.006-2.451.006Z" transform="translate(-113.635 -14.322)" fill="#0b353d"/>
        <path id="Trazado_1263874" data-name="Trazado 1263874" d="M633.291,317.457c-.778,0-1.557.027-2.334-.007-.838-.038-1.3-.493-1.271-1.176a1.116,1.116,0,0,1,1.23-1.092q2.456-.033,4.913.029a1.214,1.214,0,0,1,1.27,1.084c.009.618-.533,1.1-1.352,1.125s-1.637.006-2.456.006Z" transform="translate(-113.585 -24.741)" fill="#0b353d"/>
      </g>
    </g>
  </g>
</svg>
