<svg xmlns="http://www.w3.org/2000/svg" width="96" height="96" viewBox="0 0 96 96">
  <g id="Grupo_1204733" data-name="Grupo 1204733" transform="translate(4969.34 9588.502)">
    <g id="Grupo_1204699" data-name="Grupo 1204699" transform="translate(-16 -9)">
      <g id="Grupo_154427" data-name="Grupo 154427" transform="translate(-5747.379 -12499.582)">
        <path id="Elipse_5729" data-name="Elipse 5729" d="M48,0A48,48,0,1,1,0,48,48,48,0,0,1,48,0Z" transform="translate(794.039 2920.081)" fill="#86f071"/>
      </g>
      <g id="Grupo_1204698" data-name="Grupo 1204698" transform="translate(-5509.251 -9975.513)">
        <path id="Trazado_1263890" data-name="Trazado 1263890" d="M580.9,457.264c-.373.332-.658.579-.936.833q-1.665,1.52-3.326,3.043a4.151,4.151,0,0,1-.4.349,1.1,1.1,0,0,1-1.754-.728,3.7,3.7,0,0,1-.017-.61q0-17.733,0-35.467a6.134,6.134,0,0,1,2.59-5.258,5.916,5.916,0,0,1,3.273-1.128c.229-.011.458-.013.688-.013q16.663,0,33.326,0a6.443,6.443,0,0,1,3.576.9,6.012,6.012,0,0,1,2.928,4.833c.023.3.046.607.072.911,0,.023.024.044.069.122.157.016.352.05.547.052.943.006,1.886.021,2.828,0a6.494,6.494,0,0,1,6.274,4.361,8.077,8.077,0,0,1,.388,2.392c.04,3.719.018,7.44.018,11.159q0,12.5,0,24.995a5.148,5.148,0,0,1-.017.763,1.1,1.1,0,0,1-1.679.807,4.04,4.04,0,0,1-.488-.368c-2.47-1.967-4.947-3.925-7.4-5.911a1.944,1.944,0,0,0-1.32-.451q-16.09.015-32.18.008a7.231,7.231,0,0,1-3.876-.957,6.466,6.466,0,0,1-3.047-4.206C581.005,457.6,580.973,457.5,580.9,457.264Zm47.771,8.974.168-.06v-.816q0-16.549,0-33.1a8.721,8.721,0,0,0-.045-1.068,4.272,4.272,0,0,0-2.442-3.46,5.233,5.233,0,0,0-2.454-.444q-17.924,0-35.849,0c-.229,0-.459,0-.688.007a4.351,4.351,0,0,0-3.215,1.528A4.623,4.623,0,0,0,583.052,432q.012,11.963,0,23.925c0,.153-.008.307.005.458a4.362,4.362,0,0,0,2.8,3.939,5.023,5.023,0,0,0,2.023.294q16.4,0,32.792-.011a2.356,2.356,0,0,1,1.671.584c.574.5,1.188.96,1.786,1.436ZM576.66,457.91l.163.069c1.144-1.044,2.269-2.11,3.443-3.12a1.7,1.7,0,0,0,.626-1.445q-.03-10.851-.009-21.7a6.478,6.478,0,0,1,4.79-6.339,8.5,8.5,0,0,1,2.259-.26q14.9-.025,29.8-.012c.293,0,.586-.015.861-.022a3.913,3.913,0,0,0-2.951-4.467,6.238,6.238,0,0,0-1.365-.115q-16.621-.009-33.242,0c-.254,0-.51,0-.763.024a3.787,3.787,0,0,0-2.495,1.178,4.237,4.237,0,0,0-1.125,3.143q.012,16.2,0,32.4Z" transform="translate(0)" fill="#0b353d"/>
        <path id="Trazado_1263891" data-name="Trazado 1263891" d="M687.2,533c-1.085,0-2.1-.014-3.116,0-1.262.022-1.85-.088-1.835-1.8.044-5.375.016-10.752.017-16.127a6.768,6.768,0,0,1,.012-.687,1.061,1.061,0,0,1,1.071-.985,1.039,1.039,0,0,1,1.071.982,7.057,7.057,0,0,1,.014.764q0,7.376,0,14.752v.856h2.829v-.833q0-5.006,0-10.013a5.221,5.221,0,0,1,.031-.762.984.984,0,0,1,1.017-.94c.253-.02.509-.011.764-.011h16.178v-2.6H704.4q-5.236,0-10.471,0a4.655,4.655,0,0,1-.762-.035,1.049,1.049,0,0,1-.934-1.039,1.035,1.035,0,0,1,.879-1.08,3.307,3.307,0,0,1,.682-.054q6.076,0,12.153,0c.127,0,.255-.006.382.006a1.1,1.1,0,0,1,1.165,1.225c.02.917.005,1.834.006,2.751v.831h2.2c.408,0,.816-.013,1.223.005a1.1,1.1,0,0,1,1.179,1.2c0,.1,0,.2,0,.306q0,7.567,0,15.134a4.052,4.052,0,0,1-.011.535,1.145,1.145,0,0,1-1.059,1.026,5.91,5.91,0,0,1-.611.01H688.94c-.153,0-.306,0-.459,0a1.113,1.113,0,0,1-1.208-1.185c-.03-.585-.007-1.172-.013-1.758C687.259,533.355,687.23,533.231,687.2,533Zm2.3-12.606v10.963a5.679,5.679,0,0,0,.491-.3q2.054-1.586,4.1-3.18c1.488-1.153,2.973-2.31,4.468-3.454a1.133,1.133,0,0,1,1.649.021c.3.238.579.5.87.744.79.672,1.581,1.342,2.391,2.03.544-.421,1.061-.791,1.543-1.2,1.181-1.009,1.592-1.012,2.746,0,.625.547,1.3,1.042,1.975,1.583a51.982,51.982,0,0,0-.015-7.2Zm.288,13.617.079.143h19.977c0-1.155.009-2.268-.011-3.38a.68.68,0,0,0-.246-.44c-1.057-.869-2.128-1.722-3.2-2.581-.748.579-1.444,1.132-2.156,1.666a1.151,1.151,0,0,1-1.649-.044c-.3-.24-.577-.5-.868-.746-.79-.672-1.58-1.342-2.383-2.023Z" transform="translate(-91.309 -80.566)" fill="#0b353d"/>
        <path id="Trazado_1263892" data-name="Trazado 1263892" d="M718.356,514.674a1.1,1.1,0,0,1-1.163,1.05,1.064,1.064,0,0,1-1-1.118,1.049,1.049,0,0,1,1.065-1.053A1.107,1.107,0,0,1,718.356,514.674Z" transform="translate(-120.061 -80.705)" fill="#0b353d"/>
        <path id="Trazado_1263893" data-name="Trazado 1263893" d="M749.7,575.923a1.06,1.06,0,0,1-1.054,1.069,1.083,1.083,0,0,1-1.106-1.1,1.08,1.08,0,1,1,2.16.033Z" transform="translate(-146.621 -132.609)" fill="#0b353d"/>
      </g>
    </g>
  </g>
</svg>
