<svg xmlns="http://www.w3.org/2000/svg" xmlns:xlink="http://www.w3.org/1999/xlink" width="116" height="116" viewBox="0 0 116 116">
  <defs>
    <clipPath id="clip-path">
      <rect id="Rectángulo_456006" data-name="Rectángulo 456006" width="90.476" height="42.994" fill="none"/>
    </clipPath>
  </defs>
  <g id="Grupo_1179827" data-name="Grupo 1179827" transform="translate(-1246.833 -387)">
    <g id="Elipse_13647" data-name="Elipse 13647" transform="translate(1246.833 387)" fill="#873803" stroke="#ffea5e" stroke-width="5">
      <circle cx="58" cy="58" r="58" stroke="none"/>
      <circle cx="58" cy="58" r="55.5" fill="none"/>
    </g>
    <g id="Grupo_1179864" data-name="Grupo 1179864" transform="translate(1259.357 423.392)">
      <g id="Grupo_1179863" data-name="Grupo 1179863" transform="translate(0 0)" clip-path="url(#clip-path)">
        <path id="Trazado_993459" data-name="Trazado 993459" d="M90.476.118V.1a.1.1,0,0,0-.1-.1H.1A.1.1,0,0,0,.064.186,3.067,3.067,0,0,1,2.081,3.067,3.068,3.068,0,0,1,.064,5.949.1.1,0,0,0,0,6.038v.193a.1.1,0,0,0,.064.09A3.066,3.066,0,0,1,2.081,9.2,3.066,3.066,0,0,1,.064,12.083a.1.1,0,0,0-.064.09v.193a.1.1,0,0,0,.064.09,3.066,3.066,0,0,1,2.017,2.881A3.066,3.066,0,0,1,.064,18.218a.1.1,0,0,0-.064.09V18.5a.1.1,0,0,0,.064.089,3.068,3.068,0,0,1,2.017,2.882A3.068,3.068,0,0,1,.064,24.353a.1.1,0,0,0-.064.09v.192a.1.1,0,0,0,.064.09,3.068,3.068,0,0,1,2.017,2.882A3.068,3.068,0,0,1,.064,30.487a.1.1,0,0,0-.064.09v.192a.1.1,0,0,0,.064.09A3.068,3.068,0,0,1,2.081,33.74,3.068,3.068,0,0,1,.064,36.622a.1.1,0,0,0-.064.09V36.9a.1.1,0,0,0,.064.09,3.067,3.067,0,0,1,2.017,2.881A3.066,3.066,0,0,1,.064,42.756a.1.1,0,0,0-.064.09V42.9a.1.1,0,0,0,.1.1H90.38a.1.1,0,0,0,.1-.1v-.074a.1.1,0,0,0-.062-.089,3.067,3.067,0,0,1,0-5.72.1.1,0,0,0,.062-.089v-.237a.1.1,0,0,0-.062-.089,3.067,3.067,0,0,1,0-5.72.1.1,0,0,0,.062-.089v-.236a.1.1,0,0,0-.062-.09,3.066,3.066,0,0,1,0-5.719.1.1,0,0,0,.062-.09V24.42a.1.1,0,0,0-.062-.09,3.066,3.066,0,0,1,0-5.719.1.1,0,0,0,.062-.089v-.237a.1.1,0,0,0-.062-.089,3.067,3.067,0,0,1,0-5.72.1.1,0,0,0,.062-.089v-.237a.1.1,0,0,0-.062-.089,3.067,3.067,0,0,1,0-5.72.1.1,0,0,0,.062-.089V6.016a.1.1,0,0,0-.062-.089,3.067,3.067,0,0,1,0-5.72.1.1,0,0,0,.062-.089" transform="translate(0 0)" fill="#8dc87f"/>
        <rect id="Rectángulo_456005" data-name="Rectángulo 456005" width="34.091" height="34.091" transform="translate(9.145 4.452)" fill="#75b168"/>
        <path id="Trazado_993460" data-name="Trazado 993460" d="M47.8,7.227H79.226a.211.211,0,0,0,0-.422H47.8a.211.211,0,0,0,0,.422" transform="translate(2.105 0.301)" fill="#fff"/>
        <path id="Trazado_993461" data-name="Trazado 993461" d="M47.8,10.438H79.226a.211.211,0,0,0,0-.422H47.8a.211.211,0,0,0,0,.422" transform="translate(2.105 0.443)" fill="#fff"/>
        <path id="Trazado_993462" data-name="Trazado 993462" d="M47.8,13.649H79.226a.212.212,0,0,0,0-.423H47.8a.212.212,0,0,0,0,.423" transform="translate(2.105 0.585)" fill="#fff"/>
        <path id="Trazado_993463" data-name="Trazado 993463" d="M47.8,16.861H79.226a.212.212,0,0,0,0-.423H47.8a.212.212,0,0,0,0,.423" transform="translate(2.105 0.727)" fill="#fff"/>
        <path id="Trazado_993464" data-name="Trazado 993464" d="M47.8,20.072H79.226a.211.211,0,0,0,0-.422H47.8a.211.211,0,0,0,0,.422" transform="translate(2.105 0.869)" fill="#fff"/>
        <path id="Trazado_993465" data-name="Trazado 993465" d="M47.8,23.284H79.226a.211.211,0,0,0,0-.422H47.8a.211.211,0,0,0,0,.422" transform="translate(2.105 1.011)" fill="#fff"/>
        <path id="Trazado_993466" data-name="Trazado 993466" d="M47.8,26.495H79.226a.212.212,0,0,0,0-.423H47.8a.212.212,0,0,0,0,.423" transform="translate(2.105 1.153)" fill="#fff"/>
        <path id="Trazado_993467" data-name="Trazado 993467" d="M47.8,29.707H79.226a.212.212,0,0,0,0-.423H47.8a.212.212,0,0,0,0,.423" transform="translate(2.105 1.295)" fill="#fff"/>
        <path id="Trazado_993468" data-name="Trazado 993468" d="M47.8,32.918H79.226a.212.212,0,0,0,0-.423H47.8a.212.212,0,0,0,0,.423" transform="translate(2.105 1.437)" fill="#fff"/>
        <path id="Trazado_993469" data-name="Trazado 993469" d="M47.8,36.129H79.226a.211.211,0,0,0,0-.422H47.8a.211.211,0,0,0,0,.422" transform="translate(2.105 1.579)" fill="#fff"/>
        <path id="Trazado_993470" data-name="Trazado 993470" d="M17.705,15.226c-.513,0-.915.3-.9.647l.169,3.775a.73.73,0,1,0,1.46,0l.169-3.775c.016-.352-.386-.647-.9-.647" transform="translate(0.743 0.673)" fill="#f7ce48"/>
        <path id="Trazado_993471" data-name="Trazado 993471" d="M17.705,15.226c-.513,0-.915.3-.9.647l.169,3.775a.73.73,0,1,0,1.46,0l.169-3.775c.016-.352-.386-.647-.9-.647" transform="translate(0.743 0.673)" fill="#f7ce48"/>
        <path id="Trazado_993472" data-name="Trazado 993472" d="M17.705,15.226c-.513,0-.915.3-.9.647l.018.4c-.015-.339.379-.622.881-.622s.9.283.881.622l.018-.4c.016-.352-.386-.647-.9-.647" transform="translate(0.743 0.673)" fill="#fff"/>
        <path id="Trazado_993473" data-name="Trazado 993473" d="M20.723,14.129c-.513,0-.915.3-.9.647l.169,3.775a.73.73,0,1,0,1.46,0l.169-3.775c.016-.352-.386-.647-.9-.647" transform="translate(0.877 0.625)" fill="#f7ce48"/>
        <path id="Trazado_993474" data-name="Trazado 993474" d="M20.723,14.129c-.513,0-.915.3-.9.647l.169,3.775a.73.73,0,1,0,1.46,0l.169-3.775c.016-.352-.386-.647-.9-.647" transform="translate(0.877 0.625)" fill="#f7ce48"/>
        <path id="Trazado_993475" data-name="Trazado 993475" d="M20.723,14.129c-.513,0-.915.3-.9.647l.018.4c-.015-.339.379-.622.881-.622s.9.283.881.622l.018-.4c.016-.352-.386-.647-.9-.647" transform="translate(0.877 0.625)" fill="#fff"/>
        <path id="Trazado_993476" data-name="Trazado 993476" d="M32.767,15.226c.513,0,.915.3.9.647L33.5,19.648a.73.73,0,1,1-1.46,0l-.169-3.775c-.016-.352.386-.647.9-.647" transform="translate(1.41 0.673)" fill="#f7ce48"/>
        <path id="Trazado_993477" data-name="Trazado 993477" d="M32.767,15.226c.513,0,.915.3.9.647L33.5,19.648a.73.73,0,1,1-1.46,0l-.169-3.775c-.016-.352.386-.647.9-.647" transform="translate(1.41 0.673)" fill="#f7ce48"/>
        <path id="Trazado_993478" data-name="Trazado 993478" d="M32.767,15.226c.513,0,.915.3.9.647l-.018.4c.015-.339-.379-.622-.881-.622s-.9.283-.881.622l-.018-.4c-.016-.352.386-.647.9-.647" transform="translate(1.41 0.673)" fill="#fff"/>
        <path id="Trazado_993479" data-name="Trazado 993479" d="M29.749,14.129c.513,0,.915.3.9.647l-.169,3.775a.73.73,0,1,1-1.46,0l-.169-3.775c-.016-.352.386-.647.9-.647" transform="translate(1.276 0.625)" fill="#f7ce48"/>
        <path id="Trazado_993480" data-name="Trazado 993480" d="M29.749,14.129c.513,0,.915.3.9.647l-.169,3.775a.73.73,0,1,1-1.46,0l-.169-3.775c-.016-.352.386-.647.9-.647" transform="translate(1.276 0.625)" fill="#f7ce48"/>
        <path id="Trazado_993481" data-name="Trazado 993481" d="M29.749,14.129c.513,0,.915.3.9.647l-.018.4c.015-.339-.379-.622-.881-.622s-.9.283-.881.622l-.018-.4c-.016-.352.386-.647.9-.647" transform="translate(1.276 0.625)" fill="#fff"/>
        <path id="Trazado_993482" data-name="Trazado 993482" d="M24.062,12.532l-7.253,5.35A3.979,3.979,0,0,0,15.675,19.2c-.086.159-.172.317-.266.472l-.961,1.577c-.1.213.1.447.29.35l6.243-3.117a2.445,2.445,0,0,1,.835-.246l2.6-.228Z" transform="translate(0.638 0.554)" fill="#fff"/>
        <path id="Trazado_993483" data-name="Trazado 993483" d="M21.817,17.755a2.459,2.459,0,0,0-.835.246l-6.243,3.117a.21.21,0,0,1-.282-.1l-.008.013c-.1.212.1.446.29.349l6.243-3.117a2.483,2.483,0,0,1,.835-.246l2.6-.228-.017-.261Z" transform="translate(0.638 0.775)" fill="#f7ce48"/>
        <path id="Trazado_993484" data-name="Trazado 993484" d="M26.842,12.532l7.253,5.35A3.979,3.979,0,0,1,35.229,19.2c.086.159.172.317.266.472l.961,1.577c.1.213-.1.447-.29.35l-6.243-3.117a2.445,2.445,0,0,0-.835-.246l-2.6-.228Z" transform="translate(1.172 0.554)" fill="#fff"/>
        <path id="Trazado_993485" data-name="Trazado 993485" d="M29.088,17.755a2.459,2.459,0,0,1,.835.246l6.243,3.117a.21.21,0,0,0,.282-.1l.008.013c.1.212-.1.446-.29.349l-6.243-3.117a2.483,2.483,0,0,0-.835-.246l-2.6-.228.017-.261Z" transform="translate(1.172 0.775)" fill="#f7ce48"/>
        <path id="Trazado_993486" data-name="Trazado 993486" d="M26.695,29.7l-.809,1.7a.628.628,0,0,1-1.134,0l-.809-1.7a13.616,13.616,0,0,1-.45-3.5V11.881A10.034,10.034,0,0,1,24.743,6.94l.184-.322a.413.413,0,0,1,.783,0l.184.322a10.034,10.034,0,0,1,1.251,4.941V26.2a13.571,13.571,0,0,1-.45,3.5" transform="translate(1.039 0.28)" fill="#fff"/>
        <path id="Trazado_993487" data-name="Trazado 993487" d="M24.206,8.615h0V9.32a1.448,1.448,0,0,1,2.161,0V8.615a1.448,1.448,0,0,0-2.161,0" transform="translate(1.071 0.359)" fill="#d2d2d0"/>
        <path id="Trazado_993488" data-name="Trazado 993488" d="M25.187,30.711,23.9,27.682l-4.37,2.79-.812,2.816Z" transform="translate(0.828 1.224)" fill="#f7ce48"/>
        <path id="Trazado_993489" data-name="Trazado 993489" d="M25.57,30.711l1.289-3.029,4.371,2.79.812,2.816Z" transform="translate(1.131 1.224)" fill="#f7ce48"/>
      </g>
    </g>
  </g>
</svg>
