<svg xmlns="http://www.w3.org/2000/svg" xmlns:xlink="http://www.w3.org/1999/xlink" width="116" height="116" viewBox="0 0 116 116">
  <defs>
    <clipPath id="clip-path">
      <rect id="Rectángulo_455994" data-name="Rectángulo 455994" width="78.31" height="65.613" fill="none"/>
    </clipPath>
  </defs>
  <g id="Grupo_1179828" data-name="Grupo 1179828" transform="translate(-1034.833 -478)">
    <g id="Elipse_13649" data-name="Elipse 13649" transform="translate(1034.833 478)" fill="#873803" stroke="#ffea5e" stroke-width="5">
      <circle cx="58" cy="58" r="58" stroke="none"/>
      <circle cx="58" cy="58" r="55.5" fill="none"/>
    </g>
    <g id="Grupo_1179829" data-name="Grupo 1179829" transform="translate(1055.523 500.167)">
      <g id="Grupo_1179831" data-name="Grupo 1179831" clip-path="url(#clip-path)">
        <path id="Trazado_993401" data-name="Trazado 993401" d="M128.253,305.136c.178-.006.356-.015.534-.011a2.508,2.508,0,0,1,2,.866c1.069,1.228.8,12.3.606,14.375-.431.3-.694.213-1.2.212l-3.655-.015c0-3.861-.337-8.15.01-11.946a4.267,4.267,0,0,1,1.712-3.48" transform="translate(-114.887 -277.369)" fill="#512101"/>
        <path id="Trazado_993402" data-name="Trazado 993402" d="M502.629,332.873a4.312,4.312,0,0,1,2.964,1.078,4.855,4.855,0,0,1,1.295,2.491c.586,2.718.18,9,.181,12.066H503.18l-4.411,0c-.015-3.059-.4-9.338.093-12.046a5.241,5.241,0,0,1,.992-2.325,3.821,3.821,0,0,1,2.776-1.269" transform="translate(-453.256 -302.594)" fill="#512101"/>
        <path id="Trazado_993403" data-name="Trazado 993403" d="M481.146,182.4c1.349.618,11.638,9.406,13.448,11.182l-13.624.057c-4.412.007-8.778.5-13.191.459,1.908-2.637,4.8-4.544,7.3-6.585q3.069-2.516,6.069-5.113" transform="translate(-425.228 -165.805)" fill="#f28f1d"/>
        <path id="Trazado_993404" data-name="Trazado 993404" d="M452.11,525.591q11.366.085,22.732.037c4.014-.011,8.206-.265,12.2.107a3.8,3.8,0,0,1,1.847,2.46,3.707,3.707,0,0,1-.985,3.052,3.356,3.356,0,0,1-1.826.7c-3.543.318-7.334.012-10.909.008l-23.443-.021a41.671,41.671,0,0,0,.389-6.346" transform="translate(-410.631 -477.728)" fill="#86f071"/>
        <path id="Trazado_993405" data-name="Trazado 993405" d="M111.059,0a68.748,68.748,0,0,1,5.651,5.047c3.39,3.112,6.818,6.22,10.049,9.5q-7.728-.047-15.456-.011c-5.3,0-10.628.131-15.919-.082a76.128,76.128,0,0,1,6.186-5.819c3.108-2.878,6.169-6.011,9.489-8.632" transform="translate(-86.707)" fill="#f28f1d"/>
        <path id="Trazado_993406" data-name="Trazado 993406" d="M278.325,386.466c.1-.006.2-.014.3-.019a7.332,7.332,0,0,1,5.418,1.981,8.1,8.1,0,0,1,2.119,3.908c.753,3.206.3,9.052.289,12.579l-6.143-.012-8.395-.005c.013-4.106-.854-11.755,1.272-15.1a7.533,7.533,0,0,1,5.138-3.329" transform="translate(-247.032 -351.286)" fill="#512101"/>
        <path id="Trazado_993407" data-name="Trazado 993407" d="M579.552,326.065a123.062,123.062,0,0,0,12.638.106c1.227-.022,2.5-.261,3.719-.175a2,2,0,0,1,1.233.46,2.691,2.691,0,0,1,.642,1.569,36.146,36.146,0,0,1,.079,4.9l.067,9.263-15.92.027c.039-3.778.4-8.146-.019-11.865a5.459,5.459,0,0,0-2.439-4.291" transform="translate(-526.834 -296.325)" fill="#f28f1d"/>
        <path id="Trazado_993408" data-name="Trazado 993408" d="M90.607,615.757c20.185-.263,40.387.36,60.577.112-.19,2.672-.458,4.943-2.14,7.152a6.819,6.819,0,0,1-3.1,1.822c-3.253.793-8.514.314-11.979.28q-7.535-.076-15.071-.057l-14.03,0a68.115,68.115,0,0,1-7.375-.1,8.316,8.316,0,0,1-3.25-1.294c-2.683-1.732-3.035-5.054-3.627-7.915" transform="translate(-82.365 -559.686)" fill="#cfaf9a"/>
        <path id="Trazado_993409" data-name="Trazado 993409" d="M6.9,181.647l21.269-.006c3.45,0,10.094-.451,13.137.419l.016.37.285-.159c.654,1.916.221,10.093.36,12.771l3.171-.005a8.22,8.22,0,0,0-1.094,2.287c-.833,3.209-.295,9.925-.256,13.449l-2.414.033q.043-1.5.067-2.995c.042-2.993-.5-5.725-2.728-7.921a9.261,9.261,0,0,0-6.605-2.6,9.819,9.819,0,0,0-7.135,2.883c-2.344,2.412-2.591,5.088-2.578,8.262l-4-.015.066-8.368a30.462,30.462,0,0,0-.1-5.534,4.784,4.784,0,0,0-1.868-3.341,5.042,5.042,0,0,0-3.673-.521,3.817,3.817,0,0,0-2.309,1.9,6.369,6.369,0,0,0-.725,2.331c-.245,1.928-.15,13.272.311,14.916,1.016.705,10.526.435,12.647.453.036,2.789.007,5.582.01,8.372q-6.345-.05-12.69,0a44.339,44.339,0,0,1-6.8-.13A3.782,3.782,0,0,1,.54,216.911a3.232,3.232,0,0,1-.462-2.517,4.675,4.675,0,0,1,2.469-2.9c1.352-.05,2.711-.036,4.065-.048.159-2.685.059-5.4.058-8.086q.029-5.913-.01-11.826c-.031-3.132-.466-6.838.244-9.885" transform="translate(0 -165.012)" fill="#f28f1d"/>
      </g>
    </g>
  </g>
</svg>
