<svg xmlns="http://www.w3.org/2000/svg" width="96" height="96" viewBox="0 0 96 96">
  <g id="Grupo_1204736" data-name="Grupo 1204736" transform="translate(-1193.371 -2120.499)">
    <g id="Grupo_1204697" data-name="Grupo 1204697">
      <g id="Grupo_154427" data-name="Grupo 154427" transform="translate(399.332 -799.582)">
        <path id="Elipse_5729" data-name="Elipse 5729" d="M48,0A48,48,0,1,1,0,48,48,48,0,0,1,48,0Z" transform="translate(794.039 2920.081)" fill="#86f071"/>
      </g>
      <g id="Grupo_1204696" data-name="Grupo 1204696" transform="translate(714.177 1842.434)">
        <path id="Trazado_1263875" data-name="Trazado 1263875" d="M574.608,352c-.868-.942-1.739-1.772-2.477-2.707a10.468,10.468,0,0,1-2.141-8.876,11.973,11.973,0,0,1,.687-2.037,2.207,2.207,0,0,0,.195-1.127,4.65,4.65,0,0,1,.682-3.272,1.109,1.109,0,0,0,.137-.671,17.419,17.419,0,0,1,2.124-10.049,5.3,5.3,0,0,1,.323-.54.97.97,0,0,1,1.321-.376.945.945,0,0,1,.365,1.322c-.3.621-.661,1.212-.935,1.843a15.181,15.181,0,0,0-1.3,6.71l1.724-.308a7.108,7.108,0,0,1,2.654-3.406,36.847,36.847,0,0,0,2.695-2.632c.127-.126.222-.284.345-.414a2.16,2.16,0,0,1,3.319.042c.521.579,1,1.2,1.549,1.749a12.145,12.145,0,0,0,4.832,3.187,6.837,6.837,0,0,0,1.674.242,1.146,1.146,0,0,0,1.128-.735,3.124,3.124,0,0,1,.784-1.056,1.872,1.872,0,0,1,2.259.075,22.019,22.019,0,0,0,2.523,1.353,5.187,5.187,0,0,0,1.738.366,3.266,3.266,0,0,1,2.256.951,1.516,1.516,0,0,0,.692.327c.433.11.88.168,1.394.26a6.159,6.159,0,0,0,.064-.665,15.8,15.8,0,0,0-9.411-14.189,1.125,1.125,0,0,0-1.02.035,12.712,12.712,0,0,1-5.572,1.2,12.566,12.566,0,0,1-5.13-1.161,1.345,1.345,0,0,0-1.261.009,15.992,15.992,0,0,0-4.037,2.662,1.385,1.385,0,0,1-1.015.5A.911.911,0,0,1,577,319.19a2.642,2.642,0,0,1,.485-.526,17.259,17.259,0,0,1,3.28-2.353c.2-.112.39-.241.673-.418a12.861,12.861,0,0,1-4.91-11.026,12.5,12.5,0,0,1,4.345-8.8,12.889,12.889,0,0,1,17.556.47,12.472,12.472,0,0,1,3.851,9.912,12.837,12.837,0,0,1-4.92,9.422c.236.164.389.289.559.385a17.537,17.537,0,0,1,8.725,11.25,15.7,15.7,0,0,1,.464,5.794,1.243,1.243,0,0,0,.184.745,4.958,4.958,0,0,1,.663,3.109,2.537,2.537,0,0,0,.151,1.125,10.431,10.431,0,0,1-1.38,10.935c-.728.977-1.642,1.816-2.531,2.784.164.5.37,1.083.551,1.678a4.373,4.373,0,0,1-4.007,5.585c-.179.011-.36.009-.54.009q-10.8,0-21.594,0a4.535,4.535,0,0,1-3.674-1.56,4.189,4.189,0,0,1-.907-3.95C574.177,353.163,574.414,352.578,574.608,352Zm14.74-35.355a10.924,10.924,0,1,0-10.905-11.039A10.916,10.916,0,0,0,589.348,316.646Zm-6.644,10c-.165.092-.231.108-.265.151a22.363,22.363,0,0,1-4.072,3.916,3.428,3.428,0,0,0-1.337,2.466,14.087,14.087,0,0,0,.293,5.086,12.509,12.509,0,0,0,16.143,8.576,12.38,12.38,0,0,0,8.352-13.217c-.073-.706-.315-.972-1.023-.974a7.534,7.534,0,0,1-3.435-.931c-.657-.336-1.292-.716-1.96-1.089-.087.14-.154.236-.211.338a3.154,3.154,0,0,1-2.961,1.682,7.451,7.451,0,0,1-3.284-.812,16.865,16.865,0,0,1-5.707-4.576C583.068,327.058,582.892,326.861,582.7,326.643Zm-1.5,20.307a.9.9,0,0,0-.2.065,4.438,4.438,0,0,0-.362.263,13.278,13.278,0,0,0-3.739,4.543,12.9,12.9,0,0,0-1.01,2.672,2.313,2.313,0,0,0,2.186,2.8c.269.018.539.01.809.01h21.037c.24,0,.48.006.719-.006a2.35,2.35,0,0,0,2.28-2.742,5.149,5.149,0,0,0-.294-1.126,14.076,14.076,0,0,0-4.43-6.107c-.18-.145-.386-.258-.576-.382a14.786,14.786,0,0,1-1.365.8,1.187,1.187,0,0,0-.766,1.06,6.15,6.15,0,0,1-9.694,4.136,5.98,5.98,0,0,1-2.526-4.278c-.039-.3-.037-.575-.376-.746C582.315,347.612,581.757,347.265,581.2,346.95Zm-1.612-1.329a15.78,15.78,0,0,1-3.367-4.6c-1.724.1-1.976.026-4.008-1.1-1.436,3.447.27,7.936,3.429,10.1A17,17,0,0,1,579.592,345.622Zm26.977-5.765a4.9,4.9,0,0,1-4,1.146,15.393,15.393,0,0,1-3.343,4.631,17.293,17.293,0,0,1,3.946,4.426C606.4,347.638,607.952,343.432,606.569,339.857Zm-21.216,9.009a4.054,4.054,0,0,0,4.419,3.245,3.79,3.79,0,0,0,3.557-3.037c-1.3.12-2.591.3-3.891.344A11.352,11.352,0,0,1,585.353,348.866ZM574.968,334a2.519,2.519,0,0,0-2.15,3.086,2.33,2.33,0,0,0,2.693,1.868A15.014,15.014,0,0,1,574.968,334Zm28.312,5a2.434,2.434,0,0,0,2.744-2.233,2.4,2.4,0,0,0-2.212-2.714A14.365,14.365,0,0,1,603.28,339Z" transform="translate(-62.205)" fill="#0b353d"/>
        <path id="Trazado_1263876" data-name="Trazado 1263876" d="M503.44,353.524a9.5,9.5,0,1,1-9.531,9.434A9.5,9.5,0,0,1,503.44,353.524Zm7.568,9.519a7.573,7.573,0,0,0-15.144-.122,7.572,7.572,0,1,0,15.144.122Z" transform="translate(0 -49.759)" fill="#0b353d"/>
        <path id="Trazado_1263877" data-name="Trazado 1263877" d="M767.554,353.486a9.5,9.5,0,0,1,2.086,18.771,9.539,9.539,0,0,1-11.141-6.4,9.265,9.265,0,0,1-.448-3.006,2.8,2.8,0,0,1,.039-.536,1.042,1.042,0,0,1,.956-.805,1.053,1.053,0,0,1,.936.833,3.418,3.418,0,0,1,.019.628,7.562,7.562,0,1,0,1.575-4.611,4.849,4.849,0,0,1-.327.429.981.981,0,0,1-1.37.141.887.887,0,0,1-.174-1.283,14.427,14.427,0,0,1,1.877-2.042A9.085,9.085,0,0,1,767.554,353.486Z" transform="translate(-216.624 -49.727)" fill="#0b353d"/>
        <path id="Trazado_1263878" data-name="Trazado 1263878" d="M800.171,406.823c-.419,0-.84.02-1.257,0-.693-.041-1.069-.393-1.073-.965s.373-.949,1.053-.967q1.3-.036,2.605,0c.711.019,1.053.349,1.06.95s-.353.945-1.04.983C801.071,406.843,800.62,406.823,800.171,406.823Z" transform="translate(-249.258 -91.869)" fill="#0b353d"/>
        <path id="Trazado_1263879" data-name="Trazado 1263879" d="M775.973,398.361a4.521,4.521,0,0,1,0-.624.854.854,0,0,1,.729-.79.9.9,0,0,1,1.046.5,2.4,2.4,0,0,1,.019,1.824.883.883,0,0,1-1.014.55.857.857,0,0,1-.783-.832,5.052,5.052,0,0,1,0-.624Z" transform="translate(-231.313 -85.355)" fill="#0b353d"/>
        <path id="Trazado_1263880" data-name="Trazado 1263880" d="M837.329,398.523a3.847,3.847,0,0,1,0,.446.919.919,0,0,1-.82.906.859.859,0,0,1-1.051-.727,4.273,4.273,0,0,1,0-1.408.856.856,0,0,1,.955-.75.938.938,0,0,1,.918.91A5.641,5.641,0,0,1,837.329,398.523Z" transform="translate(-280.056 -85.406)" fill="#0b353d"/>
        <path id="Trazado_1263881" data-name="Trazado 1263881" d="M704.963,351.853a2.422,2.422,0,0,1,2.427,2.172,1.061,1.061,0,0,1-.812,1.209,1,1,0,0,1-1.054-.761c-.043-.111-.044-.254-.118-.333-.111-.12-.268-.272-.406-.272a.608.608,0,0,0-.4.276,3.644,3.644,0,0,0-.168.5.942.942,0,0,1-1.818-.365A2.376,2.376,0,0,1,704.963,351.853Z" transform="translate(-171.159 -48.39)" fill="#0b353d"/>
        <path id="Trazado_1263882" data-name="Trazado 1263882" d="M664.247,362.749a3.073,3.073,0,0,1-2.374-1.069,1.027,1.027,0,0,1-.034-1.317.939.939,0,0,1,1.3-.121c.1.064.185.151.282.221a1.422,1.422,0,0,0,1.883-.006c.072-.053.129-.126.2-.176a.923.923,0,0,1,1.359.1.962.962,0,0,1-.112,1.369A3.1,3.1,0,0,1,664.247,362.749Z" transform="translate(-137.538 -55.1)" fill="#0b353d"/>
        <path id="Trazado_1263883" data-name="Trazado 1263883" d="M635.63,354.8a7.026,7.026,0,0,1-.051.8.928.928,0,0,1-.937.79.939.939,0,0,1-.891-.746,8.545,8.545,0,0,1,0-1.7.919.919,0,0,1,.984-.738.869.869,0,0,1,.846.782A7.125,7.125,0,0,1,635.63,354.8Z" transform="translate(-114.65 -49.503)" fill="#0b353d"/>
        <path id="Trazado_1263884" data-name="Trazado 1263884" d="M665.1,530.708a4.032,4.032,0,0,1-2.6-1.1c-.49-.5-.566-1.01-.216-1.432a1.039,1.039,0,0,1,1.516-.026c.931.707,1.588.77,2.359.218.169-.121.309-.288.488-.392a.969.969,0,0,1,1.449.548,1.032,1.032,0,0,1-.353,1.046A4.057,4.057,0,0,1,665.1,530.708Z" transform="translate(-137.914 -192.711)" fill="#0b353d"/>
        <path id="Trazado_1263885" data-name="Trazado 1263885" d="M632.142,521.465a6.03,6.03,0,0,1-.008.893,1.031,1.031,0,0,1-.95.807.938.938,0,0,1-.9-.738,10.076,10.076,0,0,1-.011-1.957.864.864,0,0,1,.972-.734.919.919,0,0,1,.9.836,7.151,7.151,0,0,1,.007.894Z" transform="translate(-111.798 -186.071)" fill="#0b353d"/>
        <path id="Trazado_1263886" data-name="Trazado 1263886" d="M716.933,521.418a6.919,6.919,0,0,1,.007-.893.912.912,0,0,1,.84-.793.855.855,0,0,1,1,.687,9.734,9.734,0,0,1,0,2.039.91.91,0,0,1-.924.7,1.024,1.024,0,0,1-.915-.843,7.136,7.136,0,0,1-.007-.893Z" transform="translate(-182.893 -186.064)" fill="#0b353d"/>
        <path id="Trazado_1263887" data-name="Trazado 1263887" d="M536.161,404.415a2.537,2.537,0,0,1-2.015-.849,1.015,1.015,0,0,1-.08-1.381.947.947,0,0,1,1.3-.082,1.1,1.1,0,0,0,1.595.01.926.926,0,0,1,1.36.134.954.954,0,0,1-.156,1.362A2.528,2.528,0,0,1,536.161,404.415Z" transform="translate(-32.741 -89.415)" fill="#0b353d"/>
        <path id="Trazado_1263888" data-name="Trazado 1263888" d="M513.805,397.931a4.231,4.231,0,0,1-.035.627,1,1,0,0,1-1.005.854.993.993,0,0,1-.931-.929,5.44,5.44,0,0,1,0-1.077.958.958,0,0,1,.922-.931.981.981,0,0,1,1.029.918,3.8,3.8,0,0,1,0,.538Z" transform="translate(-14.678 -84.983)" fill="#0b353d"/>
        <path id="Trazado_1263889" data-name="Trazado 1263889" d="M572.814,397.877a4.371,4.371,0,0,1-.006.627.968.968,0,0,1-.962.888.985.985,0,0,1-.954-.9,5.888,5.888,0,0,1,0-1.165.962.962,0,0,1,1.917.01A3.839,3.839,0,0,1,572.814,397.877Z" transform="translate(-63.111 -84.964)" fill="#0b353d"/>
      </g>
    </g>
  </g>
</svg>
