<svg xmlns="http://www.w3.org/2000/svg" width="96" height="96" viewBox="0 0 96 96">
  <g id="Grupo_1204734" data-name="Grupo 1204734" transform="translate(4723.34 9579.502)">
    <g id="Grupo_1204701" data-name="Grupo 1204701">
      <g id="Grupo_154427" data-name="Grupo 154427" transform="translate(-5517.379 -12499.582)">
        <path id="Elipse_5729" data-name="Elipse 5729" d="M48,0A48,48,0,1,1,0,48,48,48,0,0,1,48,0Z" transform="translate(794.039 2920.081)" fill="#86f071"/>
      </g>
      <g id="Grupo_1204700" data-name="Grupo 1204700" transform="translate(-5321.646 -9987.484)">
        <path id="Trazado_1263894" data-name="Trazado 1263894" d="M631.325,474.553H638.1q2.286,0,4.573,0c.259,0,.584-.069.762.057a1.5,1.5,0,0,1,.612.8c.082.413-.253.67-.675.719a6.672,6.672,0,0,1-.779.026q-16.34-.024-32.68-.051c-.26,0-.522.006-.78-.018a.794.794,0,0,1-.045-1.586,8.235,8.235,0,0,1,.891-.028q4.963,0,9.927,0h.987c-2.862-2.692-4.058-5.724-2.9-9.368,1.147-3.605,3.8-5.44,7.495-5.993a6.611,6.611,0,0,1,3.388-4.044A6.942,6.942,0,0,1,632,454.4a37.669,37.669,0,0,1,4.012.025,4.585,4.585,0,0,0,3.724-1.529,2.484,2.484,0,0,1-.489-2.667,2.42,2.42,0,0,1,2.442-1.366,9.786,9.786,0,0,0-1.2-4.587,26.682,26.682,0,0,0-1.741-2.715,9.487,9.487,0,0,1,3.145-13.847A9.513,9.513,0,0,1,655.7,433.25a9.306,9.306,0,0,1-1.319,8.285,32.1,32.1,0,0,0-2.179,3.613,7.514,7.514,0,0,0-.8,3.609c.893.266,1.808.553,2.145,1.543a2.251,2.251,0,0,1-.542,2.548,4.358,4.358,0,0,0,3.7,1.58,33.966,33.966,0,0,1,4.013-.022,6.544,6.544,0,0,1,6.756,6.871c.015,3.977,0,7.954,0,11.931v1.326c.364.033.68.085.995.087,1.859.008,3.718,0,5.577.006a6.682,6.682,0,0,1,.889.042.754.754,0,0,1,.746.811.79.79,0,0,1-.779.794,6.234,6.234,0,0,1-.89.029q-11.879,0-23.757,0a4.857,4.857,0,0,1-1.1-.081.665.665,0,0,1-.583-.811,1.172,1.172,0,0,1,.6-.683,3.012,3.012,0,0,1,1.1-.1q7.027-.007,14.053,0h1.327c.029-.382.073-.7.074-1.017,0-4.126.013-8.251,0-12.377a4.828,4.828,0,0,0-4.681-5.1c-1.882-.138-3.781-.026-5.65-.026-.4.941-.721,1.851-1.161,2.7a9.722,9.722,0,0,1-3.863,3.917c-1.206.7-1.932.5-2.7-.706-.417-.656-.829-1.315-1.343-2.133l-1.286,1.993a6.236,6.236,0,0,1-.486.743,1.471,1.471,0,0,1-2.092.281,10.556,10.556,0,0,1-4.691-5.473c-.14-.378-.29-.752-.443-1.15-2.113,0-4.194-.079-6.267.024a4.054,4.054,0,0,0-3.656,2.924C634.87,460.819,637.148,469.376,631.325,474.553Zm17.975-25.72c.157-.877.266-1.76.479-2.617a15.419,15.419,0,0,1,2.87-5.487,7.806,7.806,0,0,0-5.193-12.317,7.454,7.454,0,0,0-7.981,3.714,7.314,7.314,0,0,0,.345,8.582,14.881,14.881,0,0,1,3.2,7.82c.01.174.289.331.443.5.163-.161.411-.3.47-.489a4.536,4.536,0,0,0,.141-1.1,17.848,17.848,0,0,0-.985-6.9c-.409-1.16-.138-1.623,1.012-1.821a2.136,2.136,0,0,0,1.38-.83c.552-.679,1.007-.652,1.7-.086a5.012,5.012,0,0,0,1.274.851c1.175.46,1.256.635,1.013,1.9-.335,1.747-.625,3.505-.853,5.269a19.238,19.238,0,0,0-.035,2.561C648.578,448.883,648.832,449.035,649.3,448.834ZM633,467.607a6.872,6.872,0,1,0-13.743.111,6.706,6.706,0,0,0,6.907,6.76A6.8,6.8,0,0,0,633,467.607Zm17.6-14.023a10.555,10.555,0,0,1-3.291,4.7l1.839,3.009a8.167,8.167,0,0,0,4.219-4.993.757.757,0,0,0-.28-.965C652.3,454.8,651.519,454.229,650.606,453.584Zm-11.661,2.061a8.886,8.886,0,0,0,4.41,5.714l1.775-3.093a10.544,10.544,0,0,1-3.3-4.682Zm7.871-6.751.742-8.7-1.162-.8-1.506.958a20.885,20.885,0,0,1,.753,8.539Zm-.493,1.744q-2.113,0-4.227,0a1.961,1.961,0,0,0-.768.038c-.231.106-.518.358-.539.57-.018.187.262.461.475.594a1.34,1.34,0,0,0,.653.064q4.338,0,8.676,0a1.523,1.523,0,0,0,.754-.114.845.845,0,0,0,.336-.6.653.653,0,0,0-.369-.467,2.082,2.082,0,0,0-.765-.076C649.14,450.636,647.732,450.639,646.323,450.639Zm-.085,6.356a7.468,7.468,0,0,0,2.63-3.414h-5.232A7.206,7.206,0,0,0,646.237,456.995Z" transform="translate(0)" fill="#0b353d" stroke="#0b353d" stroke-width="1"/>
        <path id="Trazado_1263895" data-name="Trazado 1263895" d="M845.8,459.775a8.418,8.418,0,0,1-1.938,5.328c-.19.226-.38.529-.63.608a1.409,1.409,0,0,1-1.01-.043c-.358-.2-.343-.634-.124-.989a7.726,7.726,0,0,1,.484-.61,6.926,6.926,0,0,0-.117-8.916c-.163-.2-.412-.408-.427-.626a1.14,1.14,0,0,1,.26-.863,1.054,1.054,0,0,1,.879-.041,1.9,1.9,0,0,1,.636.606A8.557,8.557,0,0,1,845.8,459.775Z" transform="translate(-181.502 -21.028)" fill="#0b353d" stroke="#0b353d" stroke-width="1"/>
        <path id="Trazado_1263896" data-name="Trazado 1263896" d="M700.065,453.062a.855.855,0,0,1,.907,1.1,3.655,3.655,0,0,1-.524.713,6.852,6.852,0,0,0,.075,8.984c.117.144.247.279.352.431a.716.716,0,0,1-.085,1.006.758.758,0,0,1-1.1.048,2.909,2.909,0,0,1-.315-.312,8.534,8.534,0,0,1,.031-11.452A5.371,5.371,0,0,1,700.065,453.062Z" transform="translate(-69.025 -20.651)" fill="#0b353d" stroke="#0b353d" stroke-width="1"/>
        <path id="Trazado_1263897" data-name="Trazado 1263897" d="M717.053,461.152a.839.839,0,0,1,.848,1.156,4.365,4.365,0,0,1-.5.726,4.339,4.339,0,0,0,.079,5.271c.584.782.637,1.191.2,1.523-.456.345-.914.188-1.485-.51a5.944,5.944,0,0,1,.063-7.486A5.841,5.841,0,0,1,717.053,461.152Z" transform="translate(-82.786 -26.937)" fill="#0b353d" stroke="#0b353d" stroke-width="1"/>
        <path id="Trazado_1263898" data-name="Trazado 1263898" d="M831,465.64a5.842,5.842,0,0,1-1.238,3.616,1.844,1.844,0,0,1-.717.672,1.006,1.006,0,0,1-.874-.158,1.069,1.069,0,0,1-.179-.865c.056-.263.334-.477.506-.719a4.266,4.266,0,0,0-.082-5.27c-.66-.879-.689-1.188-.147-1.578.467-.336.817-.2,1.448.594A5.782,5.782,0,0,1,831,465.64Z" transform="translate(-170.586 -26.949)" fill="#0b353d" stroke="#0b353d" stroke-width="1"/>
        <path id="Trazado_1263899" data-name="Trazado 1263899" d="M774.086,596.051a1.629,1.629,0,0,1-1.547,1.684,1.673,1.673,0,0,1-1.725-1.64,1.7,1.7,0,0,1,1.624-1.636A1.639,1.639,0,0,1,774.086,596.051Z" transform="translate(-126.235 -130.519)" fill="#0b353d" stroke="#0b353d" stroke-width="1"/>
        <path id="Trazado_1263900" data-name="Trazado 1263900" d="M882.087,455.509c-.52-.228-1.356,0-1.31-.807s.867-.467,1.4-.674a2.435,2.435,0,0,1,.129-.819,1.017,1.017,0,0,1,.621-.485c.133-.025.4.281.483.488a3.532,3.532,0,0,1,.11.893,3.837,3.837,0,0,1,.892.165c.208.092.517.358.491.491a1.021,1.021,0,0,1-.493.63,2.552,2.552,0,0,1-.866.106c-.316.443.1,1.346-.845,1.339C882.3,456.833,882.2,456.607,882.087,455.509Z" transform="translate(-211.677 -20.388)" fill="#0b353d" stroke="#0b353d" stroke-width="1"/>
        <path id="Trazado_1263901" data-name="Trazado 1263901" d="M772.418,615.924a1.622,1.622,0,0,1,1.666,1.583,1.605,1.605,0,0,1-1.573,1.673,1.714,1.714,0,0,1-1.695-1.593A1.667,1.667,0,0,1,772.418,615.924Z" transform="translate(-126.235 -147.197)" fill="#0b353d" stroke="#0b353d" stroke-width="1"/>
        <path id="Trazado_1263902" data-name="Trazado 1263902" d="M655.119,455.44c-.121.629,0,1.386-.807,1.324-.711-.055-.491-.782-.6-1.329a3.739,3.739,0,0,1-.905-.211.792.792,0,0,1-.419-.552.783.783,0,0,1,.434-.543,3.377,3.377,0,0,1,.941-.111c.041-.231.088-.469.127-.708.057-.35.19-.732.587-.646.241.052.461.388.6.645a1.958,1.958,0,0,1,.057.723,2.835,2.835,0,0,1,.835.172c.221.122.511.4.5.591s-.312.454-.543.569A2.414,2.414,0,0,1,655.119,455.44Z" transform="translate(-34.216 -20.332)" fill="#0b353d" stroke="#0b353d" stroke-width="1"/>
        <path id="Trazado_1263903" data-name="Trazado 1263903" d="M906.375,658.121c-.219.567.07,1.4-.771,1.356-.721-.037-.513-.77-.622-1.24-.008-.036-.023-.071-.056-.169-.176-.031-.382-.083-.592-.1-.407-.039-.749-.165-.737-.644.011-.427.346-.52.7-.555l.715-.072a2.74,2.74,0,0,1,.155-.858,1.028,1.028,0,0,1,.619-.485c.132-.024.4.284.482.491a3.65,3.65,0,0,1,.115.9,2.808,2.808,0,0,1,.881.135,1.064,1.064,0,0,1,.5.618c.029.12-.287.393-.5.479A3.793,3.793,0,0,1,906.375,658.121Z" transform="translate(-229.41 -177.831)" fill="#0b353d" stroke="#0b353d" stroke-width="1"/>
        <path id="Trazado_1263904" data-name="Trazado 1263904" d="M624.47,574.773c.2-.51-.026-1.335.735-1.337.852,0,.582.855.728,1.4a3,3,0,0,1,.877.135.794.794,0,0,1,.419.558.782.782,0,0,1-.429.542,3.923,3.923,0,0,1-.93.192c-.285.455.076,1.342-.783,1.277-.808-.062-.449-.872-.661-1.415a2.4,2.4,0,0,1-.8-.13,1.007,1.007,0,0,1-.492-.605c-.026-.138.268-.413.471-.5A3.232,3.232,0,0,1,624.47,574.773Z" transform="translate(-11.489 -114.183)" fill="#0b353d" stroke="#0b353d" stroke-width="1"/>
        <path id="Trazado_1263905" data-name="Trazado 1263905" d="M929.586,643.641c-.553,0-1.107,0-1.66,0a.725.725,0,0,1-.8-.741.769.769,0,0,1,.824-.845c1.07-.016,2.141-.026,3.209.009a.753.753,0,0,1,.79.867c-.023.516-.365.694-.816.709C930.62,643.655,930.1,643.642,929.586,643.641Z" transform="translate(-247.694 -167.489)" fill="#0b353d" stroke="#0b353d" stroke-width="1"/>
        <path id="Trazado_1263906" data-name="Trazado 1263906" d="M671.528,601.2c1.281-1.308,2.469-2.532,3.672-3.743.662-.666,1.231-.787,1.621-.385s.264.968-.4,1.623q-2.06,2.035-4.137,4.054c-.746.721-1.03.717-1.765.01-.642-.618-1.264-1.256-1.894-1.886a.876.876,0,0,1-.141-1.285c.329-.413.856-.4,1.365.045C670.378,600.089,670.877,600.584,671.528,601.2Z" transform="translate(-46.552 -132.367)" fill="#0b353d" stroke="#0b353d" stroke-width="1"/>
      </g>
    </g>
  </g>
</svg>
