<svg id="Grupo_1204570" data-name="Grupo 1204570" xmlns="http://www.w3.org/2000/svg" xmlns:xlink="http://www.w3.org/1999/xlink" width="51.201" height="72.313" viewBox="0 0 51.201 72.313">
  <defs>
    <clipPath id="clip-path">
      <rect id="Rectángulo_456054" data-name="Rectángulo 456054" width="51.201" height="72.312" fill="none"/>
    </clipPath>
  </defs>
  <g id="Grupo_1179971" data-name="Grupo 1179971" clip-path="url(#clip-path)">
    <path id="Trazado_994053" data-name="Trazado 994053" d="M274.247,0q.639.02,1.277.071T276.8.205q.634.082,1.264.2t1.253.257q.623.144,1.238.318t1.221.379q.606.2,1.2.438t1.178.5q.583.263,1.153.554t1.124.609q.555.318,1.093.664t1.059.717q.521.371,1.023.768t.984.817q.482.42.943.864t.9.909A25.317,25.317,0,0,1,299.3,26.159q-.045.994-.165,1.982t-.313,1.963q-.194.976-.461,1.934t-.606,1.894c-3.689,10.46-10.418,21.26-16.516,30.5-1.556,2.357-3.091,5.12-5.158,7.061a2.738,2.738,0,0,1-1.5.822l-.308-.08q.133-15.2-.019-30.406c3.805-.535,7.226-1.518,10.213-4.051A15.864,15.864,0,0,0,289.974,26.8a16.152,16.152,0,0,0-3.665-11.749,17.08,17.08,0,0,0-11.832-5.646c-.533-.7-.232-8.085-.23-9.4" transform="translate(-248.118 -0.001)" fill="#afcfd6"/>
    <path id="Trazado_994054" data-name="Trazado 994054" d="M26.157,72.232q-.158-.14-.311-.285c-8.1-7.752-20.673-27.7-24.3-38.274A26.845,26.845,0,0,1,.006,25.541q-.013-.6,0-1.2t.062-1.2q.046-.6.121-1.2t.18-1.189q.1-.592.239-1.178t.3-1.165q.163-.579.354-1.149t.41-1.131q.219-.56.465-1.109t.519-1.085q.273-.536.572-1.058t.623-1.028q.324-.506.673-1t.722-.962q.373-.472.768-.925t.813-.886C12,2.655,18.755.2,26.129,0c0,1.32-.3,8.7.23,9.4A17.08,17.08,0,0,1,38.192,15.05,16.152,16.152,0,0,1,41.857,26.8a15.864,15.864,0,0,1-5.506,10.975c-2.987,2.533-6.407,3.516-10.213,4.051q.151,15.2.019,30.407" transform="translate(0)" fill="#a0bcc2"/>
    <path id="Trazado_994055" data-name="Trazado 994055" d="M118.087,131.426a17.587,17.587,0,0,1-11.492-4.869q-.291-.285-.568-.584t-.539-.611q-.262-.312-.508-.637t-.476-.661q-.23-.336-.443-.684t-.41-.7q-.2-.358-.374-.724t-.339-.741q-.16-.375-.3-.757t-.264-.77q-.123-.389-.227-.783t-.188-.793q-.084-.4-.149-.8t-.109-.807q-.045-.4-.07-.812t-.03-.814q0-.379.016-.759t.053-.757q.035-.378.089-.753t.126-.748q.073-.373.162-.741t.2-.732q.108-.363.233-.721t.269-.71q.143-.351.3-.7t.336-.68q.176-.336.368-.663t.4-.644q.208-.317.431-.624t.461-.6q.238-.3.489-.579t.517-.555A16.731,16.731,0,0,1,118.309,99a17.08,17.08,0,0,1,11.832,5.646,16.152,16.152,0,0,1,3.665,11.749,15.864,15.864,0,0,1-5.506,10.975c-2.987,2.533-6.408,3.516-10.213,4.051" transform="translate(-91.949 -89.6)" fill="#fff"/>
    <path id="Trazado_994056" data-name="Trazado 994056" d="M275.342,155.073a11.753,11.753,0,0,1,8.018,4.149q.17.212.329.432t.306.448q.147.228.283.464t.259.477q.124.242.235.49t.209.5q.1.253.183.511t.157.52q.072.262.131.527t.1.533q.045.268.076.538t.049.541q.017.271.021.543t-.007.543q-.01.271-.034.542t-.061.54q-.034.256-.08.51t-.106.506q-.059.251-.131.5t-.156.493q-.084.244-.18.484t-.2.474q-.108.235-.228.464t-.25.452q-.131.223-.273.439t-.294.424q-.152.209-.315.409t-.336.393q-.173.192-.355.376t-.373.358q-.191.174-.39.338t-.407.318a11.685,11.685,0,0,1-6.141,2.21q.157-10.723-.038-21.446" transform="translate(-249.187 -140.342)" fill="#135966"/>
    <path id="Trazado_994057" data-name="Trazado 994057" d="M169.656,176.52a12.328,12.328,0,0,1-7.7-3.044,10.463,10.463,0,0,1-3.427-7.393,10.224,10.224,0,0,1,2.737-7.51c2.32-2.492,5.037-3.362,8.353-3.5q.195,10.723.037,21.447" transform="translate(-143.463 -140.342)" fill="#0b353d"/>
  </g>
</svg>
